<?xml version="1.0" encoding="UTF-8" standalone="no"?>
<svg
   width="16"
   height="16"
   version="1.1"
   viewBox="0 0 16 16"
   xml:space="preserve"
   id="svg1"
   sodipodi:docname="Base.svg"
   inkscape:version="1.3.2 (091e20e, 2023-11-25, custom)"
   xmlns:inkscape="http://www.inkscape.org/namespaces/inkscape"
   xmlns:sodipodi="http://sodipodi.sourceforge.net/DTD/sodipodi-0.dtd"
   xmlns="http://www.w3.org/2000/svg"
   xmlns:svg="http://www.w3.org/2000/svg"><defs
     id="defs1" /><sodipodi:namedview
     id="namedview1"
     pagecolor="#505050"
     bordercolor="#ffffff"
     borderopacity="1"
     inkscape:showpageshadow="0"
     inkscape:pageopacity="0"
     inkscape:pagecheckerboard="1"
     inkscape:deskcolor="#d1d1d1"
     showgrid="true"
     inkscape:zoom="64"
     inkscape:cx="7.1328125"
     inkscape:cy="8.1484375"
     inkscape:window-width="2560"
     inkscape:window-height="1377"
     inkscape:window-x="-8"
     inkscape:window-y="-8"
     inkscape:window-maximized="1"
     inkscape:current-layer="svg1"><inkscape:grid
       id="grid1"
       units="px"
       originx="0"
       originy="0"
       spacingx="0.1"
       spacingy="0.1"
       empcolor="#0099e5"
       empopacity="0.30196078"
       color="#0099e5"
       opacity="0.14901961"
       empspacing="5"
       dotted="false"
       gridanglex="30"
       gridanglez="30"
       visible="true" /></sodipodi:namedview><path
     id="rect2"
     style="fill:#6c707e;fill-opacity:1;stroke:none;stroke-width:0"
     d="m 8.0000001,1.5000006 c -1.950753,-3.34e-5 -5.5,0.2897333 -5.5,2 v 8.9902334 c 0,1.512693 3.1250072,2.01294 5.5,2.009766 C 10.374993,14.496826 13.5,13.999997 13.5,12.5 V 3.5000006 c 0,-1.5999952 -3.5492225,-1.9999665 -5.4999999,-2 z m 0,1 c 2.4852739,0 4.4999999,0.4000018 4.4999999,1 0,0.5999982 -2.014726,1 -4.4999999,1 -2.4852739,0 -4.5,-0.4000018 -4.5,-1 0,-0.5999982 2.0147261,-1 4.5,-1 z M 3.5000003,4.6960943 c 0,0 1.0000103,0.8039058 4.4999998,0.8039058 C 11.49999,5.5000001 12.5,4.6960943 12.5,4.6960943 v 1.703906 c 0,0.4999998 -2.000007,1.0999998 -4.4999999,1.0999998 -2.4999926,0 -4.4999998,-0.6 -4.4999998,-1.0999998 z m 0,3 c 0,0 1.0000068,0.8039059 4.4999998,0.8039058 C 11.499993,8.5000001 12.5,7.6960943 12.5,7.6960943 V 9.4000006 C 12.5,9.9000001 10.499995,10.5 8.0000001,10.5 5.500005,10.5 3.5000003,9.9000001 3.5000003,9.4000006 Z M 3.5000002,10.7 c 0,0 1.0000033,0.803906 4.4999998,0.803906 3.499997,0 4.5,-0.803906 4.5,-0.803906 v 1.7 c 0,0.5 -2.000002,1.1 -4.4999999,1.1 -2.4999976,0 -4.4999998,-0.6 -4.4999998,-1.1 z"
     sodipodi:nodetypes="sssssssssssscscsssccscsssccscsssc" /></svg>
