<?xml version="1.0" encoding="UTF-8" standalone="no"?>
<!-- Created with Inkscape (http://www.inkscape.org/) -->

<svg
   width="16"
   height="16"
   viewBox="0 0 4.2333331 4.2333331"
   version="1.1"
   id="svg1"
   inkscape:version="1.3.2 (091e20e, 2023-11-25, custom)"
   sodipodi:docname="Object_01.svg"
   xmlns:inkscape="http://www.inkscape.org/namespaces/inkscape"
   xmlns:sodipodi="http://sodipodi.sourceforge.net/DTD/sodipodi-0.dtd"
   xmlns="http://www.w3.org/2000/svg"
   xmlns:svg="http://www.w3.org/2000/svg">
  <sodipodi:namedview
     id="namedview1"
     pagecolor="#ffffff"
     bordercolor="#ffffff"
     borderopacity="1"
     inkscape:showpageshadow="0"
     inkscape:pageopacity="0"
     inkscape:pagecheckerboard="1"
     inkscape:deskcolor="#d1d1d1"
     inkscape:document-units="mm"
     showgrid="true"
     inkscape:zoom="52.193319"
     inkscape:cx="6.2555899"
     inkscape:cy="4.9335816"
     inkscape:window-width="2560"
     inkscape:window-height="1377"
     inkscape:window-x="-8"
     inkscape:window-y="-8"
     inkscape:window-maximized="1"
     inkscape:current-layer="layer1">
    <inkscape:grid
       id="grid1"
       units="px"
       originx="0"
       originy="0"
       spacingx="0.026458333"
       spacingy="0.026458334"
       empcolor="#0099e5"
       empopacity="0.30196078"
       color="#0099e5"
       opacity="0.14901961"
       empspacing="5"
       dotted="false"
       gridanglex="30"
       gridanglez="30"
       visible="true" />
  </sodipodi:namedview>
  <defs
     id="defs1" />
  <g
     inkscape:label="Layer 1"
     inkscape:groupmode="layer"
     id="layer1">
    <path
       id="rect1"
       style="color:#000000;fill:#afb1b3;stroke-linecap:round;stroke-linejoin:round;stroke-miterlimit:0;-inkscape-stroke:none;paint-order:fill markers stroke"
       d="M 1.984375 0.52916667 A 0.13230472 0.13230472 0 0 0 1.9259806 0.5431193 L 0.33796387 1.3358358 A 0.13230472 0.13230472 0 0 0 0.32607829 1.3451375 A 0.13230472 0.13230472 0 0 0 0.29920654 1.3668416 A 0.13230472 0.13230472 0 0 0 0.28473714 1.3875122 A 0.13230472 0.13230472 0 0 0 0.27181803 1.4149007 A 0.13230472 0.13230472 0 0 0 0.26665039 1.4402222 A 0.13230472 0.13230472 0 0 0 0.2635498 1.4552083 L 0.2635498 3.0432251 A 0.13230472 0.13230472 0 0 0 0.33796387 3.1600138 L 1.9259806 3.9553141 A 0.13230472 0.13230472 0 0 0 1.9342489 3.9584147 A 0.13230472 0.13230472 0 0 0 1.9430339 3.9615153 A 0.13230472 0.13230472 0 0 0 1.9885091 3.9682332 A 0.13230472 0.13230472 0 0 0 1.9936768 3.9682332 A 0.13230472 0.13230472 0 0 0 2.0427694 3.9553141 L 3.6307861 3.1600138 A 0.13230472 0.13230472 0 0 0 3.7052002 3.0432251 L 3.7052002 1.4552083 A 0.13230472 0.13230472 0 0 0 3.7046834 1.4500407 A 0.13230472 0.13230472 0 0 0 3.7031331 1.4319539 A 0.13230472 0.13230472 0 0 0 3.6995158 1.4185181 A 0.13230472 0.13230472 0 0 0 3.6943481 1.4030151 A 0.13230472 0.13230472 0 0 0 3.6943481 1.4024984 A 0.13230472 0.13230472 0 0 0 3.6809123 1.3776937 A 0.13230472 0.13230472 0 0 0 3.6752279 1.3714925 A 0.13230472 0.13230472 0 0 0 3.6607585 1.3559896 A 0.13230472 0.13230472 0 0 0 3.6540405 1.3508219 A 0.13230472 0.13230472 0 0 0 3.63337 1.3373861 A 0.13230472 0.13230472 0 0 0 3.6307861 1.3358358 L 2.0427694 0.5431193 A 0.13230472 0.13230472 0 0 0 1.984375 0.52916667 z M 1.984375 0.80873617 L 3.2752523 1.4552083 L 1.984375 2.1011637 L 0.69349772 1.4552083 L 1.984375 0.80873617 z M 0.52916667 1.6696655 L 1.8515666 2.3300903 L 1.8515666 3.6230347 L 0.52916667 2.9610596 L 0.52916667 1.6696655 z M 3.4395833 1.6696655 L 3.4395833 2.9610596 L 2.1171834 3.6230347 L 2.1171834 2.3300903 L 2.4877035 2.1450887 L 3.4395833 1.6696655 z " />
  </g>
</svg>
