<?xml version="1.0" encoding="UTF-8"?>
<svg width="16" height="16" version="1.1" viewBox="0 0 16 16" xml:space="preserve" xmlns="http://www.w3.org/2000/svg"><path d="m14.412 8.295c-0.3905-0.39053-1.0237-0.39053-1.4142 0l-4.998 4.9979v2.7071h2.7071l4.998-4.9979c0.3905-0.3905 0.3905-1.0237 0-1.4142zm-0.4122 2.9979 0.998-0.9979-1.2929-1.2929-0.998 0.99792zm-2-0.5857 1.2929 1.2928-3 3h-1.2929v-1.2928z" clip-rule="evenodd" fill="#548af7" fill-rule="evenodd"/><path d="m2.5 2c-0.41944-1.75e-4 -0.6527 0.48502-0.39062 0.8125l3.8906 4.8633 2e-3 4.8223 0.998-0.99805v-4c8.5e-5 -0.11356-0.038489-0.22378-0.10938-0.3125l-3.3496-4.1875h8.918l-3.3496 4.1875c-0.07089 0.088725-0.10946 0.19894-0.10938 0.3125v2l1-1v-0.82422l3.8906-4.8633c0.26208-0.32748 0.02881-0.81268-0.39062-0.8125z" fill="#ced0d6" style="-inkscape-stroke:none"/></svg>
