<?xml version="1.0" encoding="UTF-8"?>
<svg width="16" height="16" version="1.1" viewBox="0 0 16 16" xml:space="preserve" xmlns="http://www.w3.org/2000/svg"><path d="m2.502 2c-0.41943-1.75e-4 -0.6527 0.48502-0.39062 0.8125l3.0508 3.8125a5.5 5.5 0 0 1 4.3379 5.375 5.5 5.5 0 0 1-0.044922 0.63281l0.32422-0.2168c0.13909-0.092736 0.22264-0.24884 0.22266-0.41602v-4.3242l3.8906-4.8633c0.26208-0.32748 0.028809-0.81268-0.39062-0.8125h-11z" color="#000000" fill="#73a9d8" stroke-linejoin="round" style=""/><path d="m8 12c0-2.2091-1.7909-4-4-4s-4 1.7909-4 4 1.7909 4 4 4 4-1.7909 4-4zm-5.7365 0.5c0.0463 0.8479 0.2087 1.6134 0.4496 2.2107-0.86865-0.4131-1.5073-1.2315-1.6716-2.2107zm1.0017 0c0.0482 0.785 0.2068 1.455 0.4135 1.9276 0.1188 0.2715 0.2359 0.4376 0.3213 0.5253 0.0854-0.0877 0.2025-0.2538 0.3213-0.5253 0.2067-0.4726 0.3653-1.1426 0.4135-1.9276zm1.4696-1h-1.4696c0.0482-0.785 0.2068-1.455 0.4135-1.9276 0.1188-0.2715 0.2359-0.43756 0.3213-0.52526 0.0854 0.0877 0.2025 0.25376 0.3213 0.52526 0.2067 0.47261 0.3653 1.1426 0.4135 1.9276zm1.0017 1c-0.0463 0.8479-0.2087 1.6134-0.4496 2.2107 0.8687-0.4131 1.5073-1.2315 1.6716-2.2107zm1.222-1h-1.222c-0.0463-0.8479-0.2087-1.6134-0.4496-2.2107 0.8687 0.41312 1.5073 1.2315 1.6716 2.2107zm-4.695 0h-1.222c0.16429-0.9792 0.80297-1.7976 1.6716-2.2107-0.2409 0.59734-0.4033 1.3628-0.4496 2.2107z" clip-rule="evenodd" fill="#6c707e" fill-rule="evenodd"/></svg>
