<?xml version="1.0" encoding="UTF-8"?>
<svg width="16" height="16" version="1.1" viewBox="0 0 16 16" xml:space="preserve" xmlns="http://www.w3.org/2000/svg"><path d="m12.5 9.5377v5.9623m-3-3h6" fill="#548af7" stroke="#548af7" stroke-linecap="round" stroke-linejoin="round" stroke-miterlimit="3.3" style="paint-order:fill markers stroke"/><path d="m2.5 2a0.50005 0.50005 0 0 0-0.39062 0.8125l3.8906 4.8633v6.3242a0.50005 0.50005 0 0 0 0.77734 0.41602l0.22266-0.14844v-1.2012-3.0664-2.5a0.50005 0.50005 0 0 0-0.10938-0.3125l-3.3496-4.1875h8.918l-3.3496 4.1875a0.50005 0.50005 0 0 0-0.10938 0.3125v2.5h1v-2.3242l3.8906-4.8633a0.50005 0.50005 0 0 0-0.39062-0.8125h-11z" color="#000000" fill="#ced0d6" stroke-linejoin="round" style="-inkscape-stroke:none"/></svg>
