<?xml version="1.0" encoding="UTF-8"?>
<svg width="16" height="16" version="1.1" viewBox="0 0 16 16" xmlns="http://www.w3.org/2000/svg">
 <path d="m12.5 9c-1.933 0-3.5 1.567-3.5 3.5s1.567 3.5 3.5 3.5 3.5-1.567 3.5-3.5-1.567-3.5-3.5-3.5zm-0.5 1h1v3h-1zm0 4h1v1h-1z" fill="#e05454" fill-opacity=".70196"/>
 <path d="m2.502 2c-0.41943-1.75e-4 -0.6527 0.48502-0.39062 0.8125l3.8906 4.8633v6.3242c8.53e-5 0.39929 0.44507 0.63744 0.77734 0.41602l0.46484-0.31055a5.5 5.5 0 0 1-0.24414-1.6055 5.5 5.5 0 0 1 3.0918-4.9355l3.8008-4.752c0.26208-0.32748 0.028809-0.81268-0.39062-0.8125h-11z" color="#000000" fill="#73a9d8" stroke-linejoin="round" style="-inkscape-stroke:none"/>
</svg>
