<?xml version="1.0" encoding="UTF-8"?>
<svg width="16" height="16" version="1.1" viewBox="0 0 16 16" xml:space="preserve" xmlns="http://www.w3.org/2000/svg"><path d="m2.5 2a0.50005 0.50005 0 0 0-0.39062 0.8125l3.8906 4.8633v6.3242a0.50005 0.50005 0 0 0 0.77734 0.41602l2.8867-1.9238-0.57812-0.57813a2 2 0 0 1-0.12695-0.1543l-1.959 1.3066v-5.5664a0.50005 0.50005 0 0 0-0.10938-0.3125l-3.3496-4.1875h8.918l-3.3496 4.1875a0.50005 0.50005 0 0 0-0.10938 0.3125v1.6914a2 2 0 0 1 0.085938-0.10547 2 2 0 0 1 0.91406-0.51367v-0.89648l3.8906-4.8633a0.50005 0.50005 0 0 0-0.39062-0.8125h-11zm8 8.5 3 3-3-3z" fill="#ced0d6" style="-inkscape-stroke:none"/><path d="m15.5 10.5-5 5m0-5 5 5" fill="none" stroke="#db5c5c" stroke-linecap="round"/></svg>
