<?xml version="1.0" encoding="UTF-8"?>
<svg width="16" height="16" version="1.1" viewBox="0 0 16 16" xml:space="preserve" xmlns="http://www.w3.org/2000/svg"><g fill="#6c707e"><rect x="1" y="13" width="6" height="1" rx=".35"/><rect x="1" y="11" width="6" height="1" rx=".35"/><rect x="1" y="9" width="6" height="1" rx=".35"/><path d="m2.5 2a0.50005 0.50005 0 0 0-0.39062 0.8125l3.75 4.6875h1.1406a0.50005 0.50005 0 0 0-0.10938-0.3125l-3.3496-4.1875h8.918l-3.3496 4.1875a0.50005 0.50005 0 0 0-0.10938 0.3125v0.76758a5.5 5.5 0 0 1 1.0879-0.70117l3.8027-4.7539a0.50005 0.50005 0 0 0-0.39062-0.8125h-11z" style=""/></g><path d="m12.5 9c-1.933 0-3.5 1.567-3.5 3.5s1.567 3.5 3.5 3.5 3.5-1.567 3.5-3.5-1.567-3.5-3.5-3.5zm-0.5 1h1v3h-1zm0 4h1v1h-1z" fill="#e05454" fill-opacity=".70196"/><path d="m2.502 2c-0.41943-1.75e-4 -0.6527 0.48503-0.39062 0.8125l3.75 4.6875h1.1387c0.91236 0 1.4067 0.4176 1.4922 1.25a5.5 5.5 0 0 1 1.5996-1.1855l3.8008-4.752c0.26208-0.32747 0.028809-0.81268-0.39062-0.8125h-11z" color="#000000" fill="#73a9d8" stroke-linejoin="round" style=""/></svg>
