<?xml version="1.0" encoding="UTF-8"?>
<svg width="16" height="16" version="1.1" viewBox="0 0 16 16" xml:space="preserve" xmlns="http://www.w3.org/2000/svg">
    <g transform="matrix(-1.2 0 0 .66667 17.6 .33331)" fill="#5f8dd3" stroke-width=".91287">
        <path d="m13 4.7502c0 1.2419-2.2383 2.2498-5 2.2498s-5-1.0079-5-2.2498 2.2383-2.2498 5-2.2498 5 1.0079 5 2.2498z" stroke-width="1.1179"/>
        <path d="m8 8.5c-2.75 0-5-1.3-5-2.1v3.0053c0 0.8 2.25 2.0947 5 2.0947s5-1.2947 5-2.0947v-3.0053c0 0.8-2.25 2.1-5 2.1z"/>
        <path d="m13 10.899v3.0058c0 0.8-2.25 2.0947-5 2.0947-0.12026 0-0.23824-0.006916-0.35645-0.011719a4.1667 7.5 0 0 0-1.4714-3.1816c0.56727 0.11974 1.183 0.19336 1.8278 0.19336 2.75 0 5-1.3006 5-2.1006zm-10 0c0 0.1966 0.13668 0.42303 0.38249 0.65332a4.1667 7.5 0 0 0-0.38249 0.1084v-0.76172z"/>
        <path d="m13 15.399v3.0058c0 0.8-2.25 2.0947-5 2.0947-0.030752 0-0.060522-0.002609-0.091146-0.00293a4.1667 7.5 0 0 0 0.087891-1.2187 4.1667 7.5 0 0 0-0.089518-1.7812c0.031168 3.34e-4 0.061473 0.00293 0.092773 0.00293 2.75 0 5-1.3006 5-2.1006z"/>
    </g>
    <ellipse cx="13" cy="13" rx="3" ry="2.9997" fill="#0cf53a" stroke-width="1.1999"/>
</svg>
