<?xml version="1.0" encoding="UTF-8"?>
<svg width="16" height="16" version="1.1" viewBox="0 0 16 16" xml:space="preserve" xmlns="http://www.w3.org/2000/svg">
    
    
<path d="m10 1c-2.733 0-5.0372 0.45739-5.7617 1.082a7 2.5 0 0 1 1.7617-0.082031 7 2.5 0 0 1 6.7441 1.832c1.932-0.24927 3.2559-0.75139 3.2559-1.332 0-0.828-2.686-1.5-6-1.5zm6 2.5996c0 0.13333-0.16796 0.28711-0.47266 0.44336-0.83564 0.32121-1.6532 0.55964-2.5273 0.71484v2c0.45191-0.074614 0.87064-0.16037 1.2383-0.25586 0.54373-0.14123 0.98437-0.29916 1.2891-0.45508 0.30469-0.15592 0.47266-0.31003 0.47266-0.44336zm-2e-3 3.0117c-0.0012 5.773e-4 -0.0024 0.011533-0.0059 0.03906-0.09763 0.2362-0.45982 0.40116-0.79102 0.54102-0.66781 0.25989-1.4204 0.44083-2.2012 0.56836v1.9902c0.78255-0.13011 1.5451-0.29748 2.209-0.56641 0.34403-0.13799 0.71862-0.30823 0.78906-0.55469 0.0046-0.6324 6.45e-4 -1.264 2e-3 -1.8965-0.0018-0.0284 0.0017-0.12283-2e-3 -0.12109zm2e-3 2.9883c-0.03144 0.23673-0.38393 0.4066-0.69336 0.54687-0.68933 0.28732-1.484 0.47378-2.3066 0.60938v2.0039c0.79511-0.13019 1.5627-0.3135 2.2383-0.58203 0.32704-0.14133 0.69214-0.30791 0.75977-0.54883 0.0046-0.67627 6.45e-4 -1.353 2e-3 -2.0293z" fill="#afb1b3" stroke-width=".89443"/><path d="m6 3c-3.314 0-6 0.67206-6 1.5 0 0.82794 2.686 1.5 6 1.5 3.314 0 6-0.67206 6-1.5 0-0.82794-2.686-1.5-6-1.5zm-6 2.5996v2.0039c0 0.53334 2.7 1.3965 6 1.3965 3.3 0 6-0.86315 6-1.3965v-2.0039c0 0.53334-2.7 1.4004-6 1.4004-3.3 0-6-0.86706-6-1.4004zm0 3v2.0039c0 0.53334 2.7 1.3965 6 1.3965 3.3 0 6-0.86315 6-1.3965v-2.0039c0 0.53334-2.7 1.4004-6 1.4004-3.3 0-6-0.86706-6-1.4004zm0 3v2.0039c0 0.53334 2.7 1.3965 6 1.3965 3.3 0 6-0.86315 6-1.3965v-2.0039c0 0.53334-2.7 1.4004-6 1.4004-3.3 0-6-0.86706-6-1.4004z" fill="#5f8dd3" stroke-width=".89443"/></svg>
