<?xml version="1.0" encoding="UTF-8"?>
<svg width="16" height="16" version="1.1" viewBox="0 0 16 16" xml:space="preserve" xmlns="http://www.w3.org/2000/svg">
    <g transform="matrix(-1.2 0 0 .66667 17.6 .33333)" fill="#afb1b3">
        <g stroke-width=".91287">
            <path d="m13 15.399v3.0058c0 0.738-1.9161 1.8961-4.3717 2.0713a4.5717 8.2686 0 0 0 0.17904-1.9365 4.5717 8.2686 0 0 0-0.019531-1.0781c2.3783-0.21361 4.2122-1.3406 4.2122-2.0625z"/>
            <path d="m13 10.899v3.0058c0 0.73717-1.9119 1.8911-4.3636 2.0683a4.5717 8.2705 0 0 0-0.86426-2.9795c0.076055 0.001992 0.15099 0.005859 0.22786 0.005859 2.75 0 5-1.3006 5-2.1006z"/>
            <path d="m13 6.3994v3.0058c0 0.8-2.25 2.0947-5 2.0947-0.40164 0-0.79051-0.032372-1.1654-0.082031a4.5717 8.2705 0 0 0-2.3291-1.4473 4.5717 8.2705 0 0 0-1.0661 0.13769c-0.28038-0.24674-0.43945-0.49234-0.43945-0.70312v-3.0058c0 0.8 2.25 2.1006 5 2.1006 2.75 0 5-1.3006 5-2.1006z"/>
        </g>
        <path d="m13 4.75c0 1.242-2.2383 2.25-5 2.25s-5-1.008-5-2.25 2.2383-2.25 5-2.25 5 1.008 5 2.25z" stroke-width="1.118"/>
    </g>
    <g transform="translate(0 -.00056313)" fill-rule="evenodd">
        <path d="m16 12.5c0 1.933-1.567 3.5-3.5 3.5s-3.5-1.567-3.5-3.5 1.567-3.5 3.5-3.5 3.5 1.567 3.5 3.5" fill="#e05555"/>
        <path d="m13 14v1h-1v-1zm0-4v3h-1v-3z" fill="#fff"/>
    </g>
</svg>
