<?xml version="1.0" encoding="UTF-8"?>
<svg width="16" height="16" version="1.1" viewBox="0 0 16 16" xml:space="preserve" xmlns="http://www.w3.org/2000/svg"><rect x=".5" y="1.5" width="15" height="3" fill="#6f737a" fill-opacity=".4" style="paint-order:fill markers stroke"/><path d="m8.998 8.5035c0-1.1777 1.2951-1.8961 2.2942-1.2725l4.002 2.4978c0.941 0.5874 0.941 1.9576 0 2.545l-4.002 2.4978c-0.9991 0.6236-2.2942-0.0947-2.2942-1.2725zm1.7647-0.42416c-0.333-0.20786-0.7647 0.03158-0.7647 0.42416v4.9956c0 0.3926 0.4317 0.632 0.7647 0.4242l4.002-2.4979c0.3137-0.1957 0.3137-0.6525 0-0.8483z" clip-rule="evenodd" fill="#57965c" fill-rule="evenodd"/><path d="m9.998 8.5035c0-0.39258 0.4317-0.63202 0.7647-0.42416l4.002 2.4978c0.3137 0.1958 0.3137 0.6526 0 0.8483l-4.002 2.4979c-0.333 0.2078-0.7647-0.0316-0.7647-0.4242z" fill="#253627"/><path d="m1.5 1c-0.82235-2e-8 -1.5 0.67765-1.5 1.5v10c-3.4828e-8 0.82235 0.67765 1.5 1.5 1.5h5.541c-0.024725-0.13407-0.038442-0.26994-0.041016-0.40625l0.0019531-0.59375h-1.002v-2h1.0078l0.00195-1h-1.0098v-2h1.0156v-0.00391c0.0030918-0.34339 0.076891-0.68247 0.2168-0.99609h-1.2324v-2c3.002-0.09502 5.9858 0 9 0v2.1234l1 0.71063v-5.334c0-0.82235-0.67765-1.5-1.5-1.5zm0 1h3.5v2h-4v-1.5c1e-7 -0.28565 0.21435-0.5 0.5-0.5zm4.5 0h4v2h-4zm5 0h3.5c0.28565 1e-7 0.5 0.21435 0.5 0.5v1.5h-4zm-10 3h4v2h-4zm0 3h4v2h-4zm0 3h4v2h-3.5c-0.28565 0-0.5-0.21435-0.5-0.5z" fill="#6f737a" style="-inkscape-stroke:none;paint-order:fill markers stroke"/></svg>
