<?xml version="1.0" encoding="UTF-8"?>
<svg width="16" height="16" version="1.1" viewBox="0 0 16 16" xml:space="preserve" xmlns="http://www.w3.org/2000/svg"><rect x=".5" y="1.5" width="15" height="3" fill="#379ed4" fill-opacity=".4" stroke-width=".96609" style="paint-order:fill markers stroke"/><path d="m1.5 1c-0.82235-1e-8 -1.5 0.67765-1.5 1.5l-4.1607e-7 10c-3.4215e-8 0.82235 0.67765 1.5 1.5 1.5h13c0.82235 0 1.5-0.67765 1.5-1.5v-10c0-0.82235-0.67765-1.5-1.5-1.5zm0 1 3.5-1e-7 -4e-7 2-4 1e-7 3.8e-7 -1.5c1e-7 -0.28565 0.21435-0.5 0.5-0.5zm4.5-1e-7h4v2h-4zm5 0 3.5 4e-7c0.28565 0 0.5 0.21435 0.5 0.5v1.5l-4-4e-7zm-10 3 4-1e-7v2l-4 1e-7zm5-1e-7h4v2h-4zm5 0 4 4e-7v2l-4-4e-7zm-9.9395 3 3.9395-1e-7v2h-3.9395zm4.9395-1e-7h4v2h-4zm5 1e-7 4 3e-7v2h-4zm-10 3h4v2h-3.5c-0.28565 0-0.5-0.21435-0.5-0.5zm5 0h4v2h-4zm5 0h4v1.5c0 0.28565-0.21435 0.5-0.5 0.5h-3.5z" color="#000000" fill="#389fd6" stroke-linecap="round" stroke-linejoin="bevel" stroke-miterlimit="0" style="-inkscape-stroke:none;paint-order:fill markers stroke"/></svg>
