<?xml version="1.0" encoding="UTF-8"?>
<svg width="16" height="16" version="1.1" viewBox="0 0 16 16" xml:space="preserve" xmlns="http://www.w3.org/2000/svg"><path d="m12.5 2c-0.2761 0-0.5 0.22386-0.5 0.5l0.0071 9.7929-1.1464-1.1464c-0.19526-0.19527-0.51184-0.19527-0.7071 0-0.19527 0.19526-0.19527 0.51184 0 0.7071l2 2c0.1953 0.19526 0.5119 0.19526 0.7072 0l2-2c0.1952-0.19526 0.1952-0.51184 0-0.7071-0.1953-0.19527-0.5119-0.19527-0.7072 0l-1.1464 1.1464-0.0071-9.7929c0-0.27614-0.2239-0.5-0.5-0.5z" clip-rule="evenodd" fill="#3574f0" fill-rule="evenodd"/><g fill="#6c707e"><rect x="1" y="8" width="9.007" height="1" rx=".5"/><rect x="1" y="12" width="7" height="1" rx=".5"/><rect x="1" y="10" width="7" height=".99338" rx=".5"/><rect x="1" y="6" width="9.007" height="1" rx=".5"/><rect x="1" y="4" width="9.007" height="1" rx=".5"/><rect x="1" y="2" width="9.007" height="1" rx=".5"/></g></svg>
