<?xml version="1.0" encoding="UTF-8"?>
<svg width="16" height="16" version="1.1" viewBox="0 0 16 16" xml:space="preserve" xmlns="http://www.w3.org/2000/svg"><path d="m5.0801 2.0625c-1.8858 0.1362-4.0801 0.59952-4.0801 1.9473v8.9902c0 1.5127 3.125 2.0129 5.5 2.0098 2.375-0.0032 5.5-0.5 5.5-2v-3.4004a5.5 5.5 0 0 1-1 0.28711v0.013672c0 0.5-2 1.0996-4.5 1.0996s-4.5-0.59962-4.5-1.0996v-1.7051s1 0.80469 4.5 0.80469c0.12755 0 0.24249-0.0037908 0.36328-0.0058594a5.5 5.5 0 0 1-1.1035-1.0137c-2.142-0.10269-3.7598-0.63071-3.7598-1.0801v-1.7051s0.64663 0.51494 2.6953 0.7207a5.5 5.5 0 0 1-0.16602-1.0137c-1.4929-0.15152-2.5293-0.47388-2.5293-0.90234 0-0.44393 1.1125-0.77586 2.6934-0.91992a5.5 5.5 0 0 1 0.38672-1.0273zm-3.0801 9.1465s1 0.80469 4.5 0.80469 4.5-0.80469 4.5-0.80469v1.7012c0 0.5-2 1.0996-4.5 1.0996s-4.5-0.59962-4.5-1.0996v-1.7012z" fill="#ced0d6"/><g transform="translate(2.5,1)" fill="#3592c4"><path d="M 7.5,0 A 3.5,3.5 0 0 0 4,3.5 3.5,3.5 0 0 0 7.5,7 3.5,3.5 0 0 0 11,3.5 3.5,3.5 0 0 0 7.5,0 Z m 0,1 A 2.5,2.5 0 0 1 10,3.5 2.5,2.5 0 0 1 7.5,6 2.5,2.5 0 0 1 5,3.5 2.5,2.5 0 0 1 7.5,1 Z" stroke-width="0"/><path d="m9.5082 6.2754 0.78359-0.7836 2.4 2.3164s0.4082 0.3918 0.0082 0.7918-0.7918-0.0082-0.7918-0.0082z" fill-rule="evenodd" stroke-width=".55409"/></g></svg>
