<?xml version="1.0" encoding="UTF-8"?>
<svg width="16" height="16" version="1.1" viewBox="0 0 16 16" xml:space="preserve" xmlns="http://www.w3.org/2000/svg"><path d="m6.5 1c-1.9507-3.344e-5 -5.5 0.28974-5.5 2v8.9902c0 1.5127 3.125 2.0129 5.5 2.0098 0.16581-2.22e-4 0.33809-0.006253 0.50977-0.011719l-0.0019531-0.99805c-0.16695 0.005571-0.3353 0.009766-0.50781 0.009766-2.5 0-4.5-0.59962-4.5-1.0996v-1.7012s1 0.80469 4.5 0.80469c0.17563 0 0.34161-0.001692 0.50391-0.005859v-1.0078c-0.16569 0.0054862-0.33275 0.0097656-0.50391 0.0097656-2.5 0-4.5-0.59962-4.5-1.0996v-1.7051s1 0.80469 4.5 0.80469c0.17484 0 0.34044-0.0017249 0.50195-0.0058594a2.5002 2.5002 0 0 1 0.2168-1.0137c-0.23456 0.010914-0.47311 0.019531-0.71875 0.019531-2.5 0-4.5-0.59962-4.5-1.0996v-1.7051s1 0.80469 4.5 0.80469 4.5-0.80469 4.5-0.80469v1.7051c0 0.024367-0.006299 0.04946-0.015625 0.074219l1.0156 0.60938v-3.584c0-1.6-3.5492-2-5.5-2zm0 1c2.4853 0 4.5 0.4 4.5 1s-2.0147 1-4.5 1-4.5-0.4-4.5-1 2.0147-1 4.5-1z" fill="#ced0d6"/><path d="m10.3 7.8c-0.8-0.4-1.3 0.2-1.3 0.8v4.9c0 0.59767 0.5 1.1 1.3 0.8l4.2-2.4c0.7-0.49484 0.7-1.2052 0-1.7zm-0.3 1 3.9 2.2469-3.9 2.2531z" fill="#62b543"/><path d="m10.614 6.9545c-1.0618-0.50469-2.6 0.3-2.6 1.2v5.7813c0 0.91869 1.5382 1.5972 2.6 1.2187l4.7-2.6c0.92909-0.62435 0.92909-2.2757 0-2.9z" display="none" fill="#bc574a" fill-opacity=".61374" stroke-width="1.2941"/></svg>
