<?xml version="1.0" encoding="UTF-8" standalone="no"?>
<svg
   width="16"
   height="16"
   version="1.1"
   viewBox="0 0 16 16"
   xml:space="preserve"
   id="svg1"
   sodipodi:docname="Base_dark.svg"
   inkscape:version="1.3.2 (091e20e, 2023-11-25, custom)"
   xmlns:inkscape="http://www.inkscape.org/namespaces/inkscape"
   xmlns:sodipodi="http://sodipodi.sourceforge.net/DTD/sodipodi-0.dtd"
   xmlns="http://www.w3.org/2000/svg"
   xmlns:svg="http://www.w3.org/2000/svg"><defs
     id="defs1" /><sodipodi:namedview
     id="namedview1"
     pagecolor="#505050"
     bordercolor="#ffffff"
     borderopacity="1"
     inkscape:showpageshadow="0"
     inkscape:pageopacity="0"
     inkscape:pagecheckerboard="1"
     inkscape:deskcolor="#d1d1d1"
     showgrid="true"
     inkscape:zoom="45.254834"
     inkscape:cx="13.026233"
     inkscape:cy="1.6683301"
     inkscape:window-width="2560"
     inkscape:window-height="1377"
     inkscape:window-x="-8"
     inkscape:window-y="-8"
     inkscape:window-maximized="1"
     inkscape:current-layer="svg1"><inkscape:grid
       id="grid1"
       units="px"
       originx="0"
       originy="0"
       spacingx="0.1"
       spacingy="0.1"
       empcolor="#0099e5"
       empopacity="0.30196078"
       color="#0099e5"
       opacity="0.14901961"
       empspacing="5"
       dotted="false"
       gridanglex="30"
       gridanglez="30"
       visible="true" /></sodipodi:namedview><path
     id="rect2"
     style="fill:#ced0d6;fill-opacity:1;stroke:none;stroke-width:0"
     d="m 8.0000001,1.5000006 c -1.950753,-3.34e-5 -5.5,0.289733 -5.5,1.9999977 v 8.9902237 c 0,1.512691 3.1250072,2.012937 5.5,2.009763 C 10.374993,14.496811 13.5,13.999983 13.5,12.499987 V 3.4999983 C 13.5,1.9000049 9.9507775,1.5000341 8.0000001,1.5000006 Z m 0,0.9999989 c 2.4852739,0 4.4999999,0.4000013 4.4999999,0.9999988 0,0.5999975 -2.014726,0.9999989 -4.4999999,0.9999989 -2.4852739,0 -4.5,-0.4000014 -4.5,-0.9999989 0,-0.5999975 2.0147261,-0.9999988 4.5,-0.9999988 z M 3.5000003,4.6960907 c 0,0 1.0000103,0.8039049 4.4999998,0.8039049 C 11.49999,5.4999956 12.5,4.6960907 12.5,4.6960907 v 1.703904 c 0,0.4999993 -2.000007,1.0999986 -4.4999999,1.0999986 -2.4999926,0 -4.4999998,-0.5999993 -4.4999998,-1.0999986 z m 0,2.9999966 c 0,0 1.0000068,0.8039049 4.4999998,0.8039048 C 11.499993,8.4999921 12.5,7.6960873 12.5,7.6960873 v 1.7039043 c 0,0.499999 -2.000005,1.0999984 -4.4999999,1.0999984 -2.4999951,0 -4.4999998,-0.5999994 -4.4999998,-1.0999984 z m -10e-8,3.0039027 c 0,0 1.0000033,0.803905 4.4999998,0.803905 3.499997,0 4.5,-0.803905 4.5,-0.803905 v 1.699998 c 0,0.499999 -2.000002,1.099998 -4.4999999,1.099998 -2.4999976,0 -4.4999998,-0.599999 -4.4999998,-1.099998 z"
     sodipodi:nodetypes="sssssssssssscscsssccscsssccscsssc" /></svg>
