<?xml version="1.0" encoding="UTF-8" standalone="no"?>
<svg
   width="16"
   height="16"
   version="1.1"
   viewBox="0 0 16 16"
   xml:space="preserve"
   id="svg1"
   sodipodi:docname="BaseSmall_dark.svg"
   inkscape:version="1.3.2 (091e20e, 2023-11-25, custom)"
   xmlns:inkscape="http://www.inkscape.org/namespaces/inkscape"
   xmlns:sodipodi="http://sodipodi.sourceforge.net/DTD/sodipodi-0.dtd"
   xmlns="http://www.w3.org/2000/svg"
   xmlns:svg="http://www.w3.org/2000/svg"><defs
     id="defs1" /><sodipodi:namedview
     id="namedview1"
     pagecolor="#505050"
     bordercolor="#ffffff"
     borderopacity="1"
     inkscape:showpageshadow="0"
     inkscape:pageopacity="0"
     inkscape:pagecheckerboard="1"
     inkscape:deskcolor="#d1d1d1"
     showgrid="true"
     inkscape:zoom="64"
     inkscape:cx="3.4453125"
     inkscape:cy="6.3359375"
     inkscape:window-width="2560"
     inkscape:window-height="1377"
     inkscape:window-x="-8"
     inkscape:window-y="-8"
     inkscape:window-maximized="1"
     inkscape:current-layer="svg1"><inkscape:grid
       id="grid1"
       units="px"
       originx="0"
       originy="0"
       spacingx="0.1"
       spacingy="0.1"
       empcolor="#0099e5"
       empopacity="0.30196078"
       color="#0099e5"
       opacity="0.14901961"
       empspacing="5"
       dotted="false"
       gridanglex="30"
       gridanglez="30"
       visible="true" /></sodipodi:namedview><path
     id="rect2"
     style="fill:#ced0d6;fill-opacity:1;stroke:#6c707e;stroke-width:0"
     d="M 5.5000001,2.0000012 C 3.5492471,1.9999678 1.0000004,2.2397343 1.0000004,3.950001 l 1e-7,7.433981 c 10e-8,1.512693 2.1250069,2.06294 4.4999997,2.059766 C 7.8749931,13.440548 10,12.862495 10,11.362498 L 10,3.918751 C 10,2.3187558 7.4507775,2.0000347 5.5000001,2.0000012 Z m 0,1 c 2.4852739,0 3.5,0.3187516 3.5,0.9187498 0,0.5999982 -1.0147261,1.0812502 -3.5,1.0812502 -2.4852739,0 -3.4999997,-0.450002 -3.4999997,-1.0500002 0,-0.5999982 1.0147258,-0.9499998 3.4999997,-0.9499998 z M 2.0000006,5.1460947 c 0,0 1e-5,0.853906 3.4999995,0.853906 3.4999898,0 3.5,-0.885156 3.5,-0.885156 l 0,1.1851554 c 0,0.4999998 -1.0000071,1.18125 -3.5,1.18125 -2.4999926,0 -3.4999995,-0.6500002 -3.4999995,-1.15 z m 0,2.4812494 c 0,0 6.5e-6,0.8539061 3.4999995,0.853906 3.4999928,0 3.5,-0.885156 3.5,-0.885156 v 1.1851554 c 0,0.4999988 -1.0000051,1.1812489 -3.5,1.1812489 -2.4999951,0 -3.4999995,-0.6500001 -3.4999995,-1.1499989 z m -10e-8,2.4851539 c 0,0 3e-6,0.853906 3.4999995,0.853906 3.4999969,0 3.5000001,-0.885156 3.5000001,-0.885156 l 1e-7,1.18125 c 10e-8,0.5 -1.0000021,1.18125 -3.5,1.18125 -2.4999976,0 -3.4999994,-0.65 -3.4999995,-1.15 z"
     sodipodi:nodetypes="sssssssssssscscsssccscsssccscsssc" /></svg>
