<?xml version="1.0" encoding="UTF-8" standalone="no"?>
<!-- Copyright 2000-2023 JetBrains s.r.o. and contributors. Use of this source code is governed by the Apache 2.0 license. -->

<svg
   width="16"
   height="16"
   viewBox="0 0 16 16"
   fill="none"
   version="1.1"
   id="svg8"
   sodipodi:docname="File_dark.svg"
   inkscape:version="1.3.2 (091e20e, 2023-11-25, custom)"
   xml:space="preserve"
   xmlns:inkscape="http://www.inkscape.org/namespaces/inkscape"
   xmlns:sodipodi="http://sodipodi.sourceforge.net/DTD/sodipodi-0.dtd"
   xmlns="http://www.w3.org/2000/svg"
   xmlns:svg="http://www.w3.org/2000/svg"><sodipodi:namedview
     id="namedview8"
     pagecolor="#505050"
     bordercolor="#ffffff"
     borderopacity="1"
     inkscape:showpageshadow="0"
     inkscape:pageopacity="0"
     inkscape:pagecheckerboard="1"
     inkscape:deskcolor="#d1d1d1"
     showgrid="true"
     inkscape:zoom="73.8125"
     inkscape:cx="14.936494"
     inkscape:cy="8.6232007"
     inkscape:window-width="2560"
     inkscape:window-height="1377"
     inkscape:window-x="-8"
     inkscape:window-y="-8"
     inkscape:window-maximized="1"
     inkscape:current-layer="svg8"><inkscape:grid
       id="grid8"
       units="px"
       originx="0"
       originy="0"
       spacingx="0.1"
       spacingy="0.1"
       empcolor="#0099e5"
       empopacity="0.30196078"
       color="#0099e5"
       opacity="0.14901961"
       empspacing="5"
       dotted="false"
       gridanglex="30"
       gridanglez="30"
       visible="true" /></sodipodi:namedview><defs
     id="defs8"><clipPath
       id="clip0_11453_11473"><rect
         width="16"
         height="16"
         fill="white"
         id="rect8" /></clipPath></defs><path
     style="fill:#ced0d6;stroke:none;color:#000000;-inkscape-stroke:none;fill-opacity:1"
     d="M 4,2 C 2.9006497,2 2,2.9006497 2,4 l 2e-7,9 c 0,1.09935 0.9006497,2 2,2 H 11 c 1.09935,0 2,-0.90065 2,-2 L 13,4 C 13,2.9006497 12.09935,2 11,2 Z m 0,1 h 7 c 0.562648,0 1,0.4373519 1,1 l 0,9 c 0,0.562648 -0.437352,1 -1,1 H 4.0000002 c -0.5626481,0 -1,-0.437352 -1,-1 L 3,4 C 3,3.4373519 3.4373519,3 4,3 Z"
     id="rect1"
     sodipodi:nodetypes="ssssssssssssssssss"
     transform="translate(-0.9999999,-0.99999998)" /><rect
     x="4"
     y="4"
     width="7"
     height="1"
     rx="0.5"
     fill="#6c707e"
     id="rect2"
     style="fill:#ced0d6;fill-opacity:1;stroke:none"
     transform="translate(-0.9999999,-0.99999998)" /><rect
     x="3"
     y="5"
     width="7"
     height="1.0059272"
     rx="0.5"
     fill="#6c707e"
     id="rect3"
     style="fill:#ced0d6;fill-opacity:1;stroke:none" /><rect
     x="3"
     y="8.9940729"
     width="7"
     height="1.0059272"
     rx="0.5"
     fill="#6c707e"
     id="rect3-0"
     style="fill:#ced0d6;fill-opacity:1;stroke:none" /><rect
     x="3"
     y="7"
     width="7"
     height="1.0000001"
     rx="0.5"
     fill="#6c707e"
     id="rect4"
     style="fill:#ced0d6;fill-opacity:1;stroke:none" /><rect
     x="3"
     y="10.994073"
     width="7"
     height="1.0059272"
     rx="0.5"
     fill="#6c707e"
     id="rect3-8"
     style="fill:#ced0d6;fill-opacity:1;stroke:none" /><g
     style="fill:none"
     id="g10"
     transform="translate(0.56900931,0.62320068)" /></svg>
