<?xml version="1.0" encoding="UTF-8"?>
<svg width="44" height="44" version="1.1" viewBox="0 0 44 44" xml:space="preserve" xmlns="http://www.w3.org/2000/svg" xmlns:xlink="http://www.w3.org/1999/xlink"><defs><linearGradient id="linearGradient3821"><stop stop-color="#b3f0ff" offset="0"/><stop stop-color="#4251ff" offset="1"/></linearGradient><radialGradient id="radialGradient1795" cx="85.202" cy="119.49" r="30.99" gradientTransform="matrix(.37154 0 0 .36944 45.466 39.043)" gradientUnits="userSpaceOnUse"><stop stop-color="#e7b43e" offset=".24595"/><stop stop-color="#c46b23" offset="1"/></radialGradient><linearGradient id="linearGradient3823" x1="17.068" x2="75.719" y1="97.486" y2="97.486" gradientTransform="matrix(.38277 0 0 .35364 44.055 40.27)" gradientUnits="userSpaceOnUse" xlink:href="#linearGradient3821"/><linearGradient id="linearGradient3831" x1="64.821" x2="127.2" y1="85.957" y2="85.957" gradientTransform="matrix(.37154 0 0 .35364 43.503 39.708)" gradientUnits="userSpaceOnUse"><stop stop-color="#b0b0b0" stop-opacity=".18834" offset="0"/><stop stop-color="#adadad" offset="1"/></linearGradient><linearGradient id="linearGradient3" x1="17.068" x2="75.719" y1="97.486" y2="97.486" gradientTransform="matrix(.38277 0 0 .36711 44.055 39.49)" gradientUnits="userSpaceOnUse" xlink:href="#linearGradient3821"/></defs><g transform="translate(-48.587 -53.636)"><path d="m68.587 55.636v4.625c3 0.625 6 1.875 6 4.375v5h12v2l-5.8438-0.07937 0.21875 2.0794h5.625v1.1679c1 0.58084 2.7342 3.5858 3 5.2169l-2.6231 1.8848c0.1246 1.0581 0.12933 1.2972 0.04687 2.4336l1.8867 1.2969h1.6895l-5.2e-5 -19h-12v-11zm12 0v9h10z" fill="url(#linearGradient3831)" stroke-width="2.1889"/><g transform="matrix(1.0244 0 0 .99952 -1.2361 -.073211)"><path d="m61.799 60.738c-6.1918 0-11.21 1.7917-11.21 4.0019 0 2.2103 5.0186 4.0019 11.21 4.0019 6.1918 0 11.21-1.7916 11.21-4.0019 0-2.2102-5.0187-4.0019-11.21-4.0019z" fill="url(#linearGradient3)" stroke-width="2.046"/><g fill="url(#linearGradient3823)" stroke-width="2.0081"><path d="m50.617 81.871 0.0076 4.2989c0.0035 2.1291 5.0206 3.8554 11.212 3.8554 1.314 0 2.5688-0.0819 3.7406-0.22472-0.67297-1.132-1.2375-2.4162-1.5996-3.4665l2.7607-1.8192c-0.0039-0.03328-0.0057-0.06288-0.0095-0.09575-1.5358 0.2346-3.1995 0.34001-4.8998 0.34001-4.6344 0-9.0369-0.75108-11.212-2.8881z"/><path d="m50.571 74.657 0.007626 4.4162c0.003989 2.0253 5.0186 3.6678 11.21 3.6678 1.7513 0 3.4037-0.13511 4.8807-0.36932 0.017102-0.1349 0.038662-0.26737 0.068636-0.40058l-2.7149-1.9326c0.24674-0.71577 0.67505-1.6121 1.1763-2.5071-1.1603 0.12752-2.3196 0.18638-3.3917 0.19345-3.9425 0.02558-9.116-0.64796-11.237-3.0679z"/><path d="m50.588 67.756c2.1376 2.2577 6.9919 3.0182 11.211 2.9942 4.0531-0.02326 9.7276-0.87706 11.239-3.1675l-0.03489 4.3076c-0.01724 2.129-5.0195 3.855-11.211 3.855-6.1918 0-11.215-1.7259-11.211-3.855z"/></g></g><path d="m85.884 84.844 2.7514 1.8681c-0.52952 1.5499-1.3988 2.9551-2.5247 4.1372l-3.0852-1.3171c-0.87811 0.73222-1.9094 1.3038-3.0425 1.6662l-0.33604 3.1875c-0.81454 0.16382-1.6594 0.24976-2.5254 0.24976-0.8661 0-1.7109-0.08589-2.5255-0.24976l-0.33608-3.1875c-1.1331-0.36216-2.1644-0.93394-3.0425-1.6662l-3.0852 1.3171c-1.1258-1.1821-1.9951-2.5874-2.5246-4.1372l2.7514-1.8681c-0.11256-0.53591-0.17162-1.0901-0.17162-1.6573s0.05908-1.1214 0.17162-1.6573l-2.7514-1.8681c0.52952-1.5499 1.3988-2.9551 2.5247-4.1372l3.0852 1.3171c0.87809-0.73222 1.9094-1.3038 3.0425-1.6662l0.33604-3.1875c0.81453-0.16382 1.6594-0.24971 2.5255-0.24971 0.86609 0 1.7109 0.08589 2.5255 0.24971l0.33604 3.1875c1.1331 0.36216 2.1644 0.93394 3.0426 1.6662l3.0852-1.3171c1.1259 1.1821 1.9951 2.5874 2.5247 4.1372l-2.7514 1.8681c0.11256 0.53591 0.17157 1.0901 0.17157 1.6573s-0.05915 1.1214-0.17157 1.6573zm-8.7626 1.8332c1.934-0.04971 3.7409-1.3472 3.6912-3.303-0.05765-2.2631-1.676-3.7028-3.6912-3.6772-2.1492 0.02815-3.6911 1.406-3.6911 3.4901 0 2.0331 1.918 3.5356 3.6911 3.4902z" fill="url(#radialGradient1795)" fill-rule="evenodd" stroke-width="1.8106"/></g></svg>
