<?xml version="1.0" encoding="UTF-8"?>
<svg width="16" height="16" version="1.1" viewBox="0 0 16 16" xml:space="preserve" xmlns="http://www.w3.org/2000/svg"><path transform="translate(-2,1.0004)" d="m9 6.9996c-1 0.53333-2 1.8667-2 4s1 3.4667 2 4v-1.6c-0.75388-0.7178-0.8-1.6-0.8-2.4s0.15749-1.7958 0.8-2.4zm1-6e-7v1.6c0.75771 0.72166 0.8 1.6 0.8 2.4 0 0.92774-0.15878 1.7971-0.8 2.4v1.6c1-0.53334 2-1.8667 2-4s-1-3.4667-2-4z" fill="#f26522"/><path transform="translate(4.0008,-3.0004)" d="m9 6.9996c-1 0.53333-2 1.8667-2 4s1 3.4667 2 4v-1.6c-0.75388-0.7178-0.8-1.6-0.8-2.4s0.15749-1.7958 0.8-2.4zm1-6e-7v1.6c0.75771 0.72166 0.8 1.6 0.8 2.4 0 0.92774-0.15878 1.7971-0.8 2.4v1.6c1-0.53334 2-1.8667 2-4s-1-3.4667-2-4z" fill="#f26522"/><path d="m10 0c-1.6 0-3.0616 1.3384-3 3v0.35547c0.64414 0.73039 0.9997 1.6707 1 2.6445l1e-7 1c0.12969 3.01e-5 0.68064 0.13422 1 0.5v-1h1v-1.5h-1l9.9e-6 -2.5996c1.5e-6 -0.40039 0.39924-0.99999 1.1992-1 0.8-1e-5 1.2012 0.6 1.2012 1h1.5488c-0.27218-1.5116-1.3492-2.4004-2.9492-2.4004z" fill="#000000"/><path d="m3.989 3c-1.6 0-3 1-3 3l-1e-7 2.5-0.98897-1e-7v1.5h1v4.5h-1v1.5h4v-1.5h-1v-4.5h1v-1.5l-1.011 1e-7v-3c0-0.40039 0.4-1.0992 1.1992-1.0996 0.80078-3.906e-4 1.3008 0.6996 1.3008 1.0996h1.5c0-1.5-1.4-2.5-3-2.5z" fill="#000000"/></svg>
