<?xml version="1.0" encoding="UTF-8"?>
<svg width="16" height="16" version="1.1" viewBox="0 0 16 16" xml:space="preserve" xmlns="http://www.w3.org/2000/svg"><path d="m11 14.118h-0.22307c-0.22065 0-0.57217-0.03755-0.77693-0.091v1.0099h-0.99999v-1.4961c-0.57612-0.46709-1-1.1122-1-1.9084 0-0.79609 0.42391-1.5612 1-2.0283v-1.5674h0.99999v1.0812c0.20476-0.05345 0.55627-0.091 0.77693-0.091h0.22307v-0.99018h0.99999v0.99018h0.68461c0.10874 0 0.20982 0.01909 0.31538 0.03245v-1.0226h0.99999v1.3459c0.41524 0.24309 0.7093 0.59818 0.9325 1.0265l0.89279-0.89409 0.67468 0.67518-1.282 1.2829c0.0013 0.03373 0.0064 0.02991 0.0064 0.06364 0 0.01209-5e-3 0.05791-0.0057 0.07l1.2813 1.2765-0.67468 0.67518-0.868-0.86864c-0.22192 0.44864-0.5268 0.82027-0.9573 1.0723v1.2746h-0.99999v-0.95136c-0.10556 0.01336-0.20664 0.03246-0.31538 0.03246h-0.68461v0.9189h-1.0001zm2-3.6113h-0.99999v2.0647h0.99999zm-2 0h-1v2.0647h1z" fill="#62b543" stroke-width="1.0061"/><path d="m7 1c-1.6 0-3 1-3 3l-1e-7 2.5-1.4885-1e-7 -4.659e-4 1.5 1.5-1e-7 -0.011048 5.5h-1.5v1.5h5v-1.5h-1.5l0.011048-5.5 1.489 6e-7 1e-7 -1.5h-1.5v-3c0-0.40039 0.4-1.0992 1.1992-1.0996 0.80078-3.906e-4 1.3008 0.6996 1.3008 1.0996h1.5c0-1.5-1.4-2.5-3-2.5z"/></svg>
