<?xml version="1.0" encoding="UTF-8"?>
<svg width="16" height="16" version="1.1" viewBox="0 0 4.2333 4.2333" xml:space="preserve" xmlns="http://www.w3.org/2000/svg"><g transform="matrix(.26458 0 0 .26458 .79376 4.3947e-6)" fill="#6c707e"><path d="M 7.5,0 A 3.5,3.5 0 0 0 4,3.5 3.5,3.5 0 0 0 7.5,7 3.5,3.5 0 0 0 11,3.5 3.5,3.5 0 0 0 7.5,0 Z m 0,1 A 2.5,2.5 0 0 1 10,3.5 2.5,2.5 0 0 1 7.5,6 2.5,2.5 0 0 1 5,3.5 2.5,2.5 0 0 1 7.5,1 Z" stroke-width="0"/><path d="m9.5082 6.2754 0.78359-0.7836 2.4 2.3164s0.4082 0.3918 0.0082 0.7918-0.7918-0.0082-0.7918-0.0082z" fill-rule="evenodd" stroke-width=".55409"/></g><path d="m1.3265 0.97358-1.2573 0.62735a0.1323 0.1323 0 0 0-0.011885 0.0093017 0.1323 0.1323 0 0 0-0.026872 0.021704 0.1323 0.1323 0 0 0-0.014469 0.02067 0.1323 0.1323 0 0 0-0.012919 0.027388 0.1323 0.1323 0 0 0-0.0051676 0.025321 0.1323 0.1323 0 0 0-0.0031006 0.014986v1.588a0.1323 0.1323 0 0 0 0.074413 0.11679l1.588 0.79529a0.1323 0.1323 0 0 0 0.0082682 0.0031006 0.1323 0.1323 0 0 0 0.0087849 0.0031005 0.1323 0.1323 0 0 0 0.045475 0.0067179 0.1323 0.1323 0 0 0 0.0051676 0 0.1323 0.1323 0 0 0 0.049092-0.012919l1.588-0.79529a0.1323 0.1323 0 0 0 0.074414-0.11679v-1.0878a1.4552 1.4552 0 0 1-0.26561 0.10542v0.9002l-1.3224 0.66197v-1.2929l0.37052-0.185 0.16795-0.083715a1.4552 1.4552 0 0 1-0.32091-0.13539l-0.35036 0.17518-1.2909-0.64595 0.93844-0.47025a1.4552 1.4552 0 0 1-0.03669-0.27647zm-1.0661 0.96117 1.3224 0.66042v1.2929l-1.3224-0.66197v-1.2914z" color="#000000" fill="#6c707e" stroke-linecap="round" stroke-linejoin="round" stroke-miterlimit="0" stroke-width=".99999" style="-inkscape-stroke:none;paint-order:fill markers stroke"/></svg>
