<?xml version="1.0" encoding="UTF-8"?>
<svg width="16" height="16" version="1.1" viewBox="0 0 16 16" xml:space="preserve" xmlns="http://www.w3.org/2000/svg"><rect x="1" y="2" width="14" height="11" display="none" fill="#43454a" stroke-miterlimit="0" stroke-width="0"/><g fill="#ced0d6" stroke-miterlimit="0" stroke-width="0"><path d="m4 4 3 3-3 3s-0.4 0.4-0.8 0c-0.4-0.4 0-0.8 0-0.8l2.2-2.2-2.2-2.2s-0.4-0.4 0-0.8 0.8 0 0.8 0z"/><path d="m7 10 4.1-0.005524s0.6 0 0.6 0.5c0 0.5-0.6 0.5-0.6 0.5l-4.1 0.005525s-0.6-0.01217-0.6-0.50609c0-0.49391 0.6-0.49391 0.6-0.49391z"/><path d="m1.6 1c-1 0-1.6 0.6-1.6 1.5156v9.8823c0 0.80204 0.8 1.602 1.6 1.602h12.8c0.8 0 1.6-0.8 1.6-1.6v-9.8c0-0.8-0.8-1.6-1.6-1.6zm0.4 1h12c0.6 0 1 0.4 1 1v9c0 0.6-0.4 1-1 1h-12c-0.6 0-1-0.4-1-1v-9c0-0.6 0.4-1 1-1z"/></g></svg>
