<?xml version="1.0" encoding="UTF-8"?>
<svg width="16" height="16" version="1.1" viewBox="0 0 16 16" xml:space="preserve" xmlns="http://www.w3.org/2000/svg"><g transform="matrix(.70166 -.36002 .35374 .71412 6.129 1.0678)" fill="#5f8dd3"><path d="m6.1643 1.6644a5.345 5.2196 26.753 0 1-0.18135 4.1971 5.345 5.2196 26.753 0 1-3.7456 2.7585c0.53171 0.26154 1.1303 0.40728 1.7627 0.40728 2.2097-1.144e-4 4.0009-1.7937 4.0001-4.0031-2.19e-4 -1.4104-0.73254-2.648-1.8358-3.3597z"/><path d="m5.9998 7.1254-0.8873-0.0234a5.345 5.2196 26.753 0 1-3.112 1.5791l5.346e-4 1.3185 0.99962 1.0263 4.371e-4 0.9985-0.99974 1.0002-0.001865 0.97546 2.0013 1.999 1.9982 8.81e-4 9.183e-4 -8.8746z"/></g><g transform="matrix(.78578 0 0 .79974 5.0073 -.77817)" fill="#f5c400"><path d="m3.9999 1.0267c-2.1432 0-3.8918 1.685-3.9943 3.8025a5.3321 5.2326 0 0 1 1.0042-0.10501 5.3321 5.2326 0 0 1 5.0979 3.7024c1.1367-0.70602 1.892-1.9657 1.8915-3.402-3.428e-4 -2.2086-1.7904-3.9978-3.9993-3.9979zm0 2.0246c0.55228 1e-7 0.9992 0.44901 0.9992 1.0013 0 0.55228-0.44692 0.99886-0.9992 0.99886s-0.9992-0.44657-0.9992-0.99886c0-0.55228 0.44692-1.0013 0.9992-1.0013z" fill="#f5c400"/></g><g transform="matrix(.70166 -.36002 .35374 .71412 1.1302 5.05)" fill="#5f8dd3"><path d="m6.0384 1.5848a5.345 5.2196 26.753 0 1-0.11421 4.3786 5.345 5.2196 26.753 0 1-3.5475 2.7189c0.4962 0.22074 1.0459 0.34555 1.624 0.34556 2.2097-1e-4 4.0009-1.7937 4.0001-4.0031-1.989e-4 -1.4644-0.78786-2.7435-1.9624-3.4399z"/><path d="m6.0006 7.126-0.85961-0.023115a5.345 5.2196 26.753 0 1-3.1406 1.6467l-8.332e-4 1.2495 0.99962 1.0263 4.37e-4 0.9985-0.99974 1.0002 3.545e-4 0.97658 2.0013 1.999 1.9982 8.81e-4 9.183e-4 -8.8746z"/></g><g transform="matrix(.78578 0 0 .79974 .0084745 3.2041)" fill="#f5c400"><path d="m4 1.0269c2.2089 5.73e-5 3.9997 1.7895 4 3.9981 8.086e-4 2.2094-1.7903 4.0018-4 4.0019-2.2097-5.7e-5 -4.0008-1.7925-4-4.0019 3.2431e-4 -2.2086 1.7911-3.9981 4-3.9981zm0 2.025c-0.55228 0-1 0.44772-1 1s0.44772 1 1 1c0.55228-1e-7 1-0.44772 1-1s-0.44772-1-1-1z"/><path d="m6 7.125v8.875h-2l-2-2v-0.975l1-1v-1l-1-1.025v-2.975z" stroke-width="1.211"/></g></svg>
