<?xml version="1.0" encoding="UTF-8"?>
<svg width="16" height="16" version="1.1" viewBox="0 0 16 16" xml:space="preserve" xmlns="http://www.w3.org/2000/svg"><g transform="rotate(-26.755 6.014 -3.9622)" fill="#5f8dd3"><path d="m5.7341 1.421c-0.063758-0.030704-0.1289-0.059908-0.19449-0.087118a5 5 0 0 1-9.463e-4 4.501 5 5 0 0 1-3.5463 2.6523c0.59002 0.34316 1.2753 0.53945 2.0072 0.53947 2.2097-1e-4 4.0023-1.7927 4.0015-4.0021-2.156e-4 -1.5874-0.92635-2.958-2.2669-3.6036z"/><path d="m6 7.1239-1.3721-0.033373a5 5 0 0 1-2.6276 1.3941l-6.568e-4 1.5155 1.0011 1.0253-6.924e-4 0.99925-1.0008 1.0003 2.593e-4 0.97567 1.9997 1.999 2.0011 5.2e-4 -2.712e-4 -8.8762z"/></g><g transform="translate(1 -.025)" fill="#f5c400"><path d="m4 1.0269c2.2089 5.73e-5 3.9997 1.7895 4 3.9981 8.086e-4 2.2094-1.7903 4.0018-4 4.0019-2.2097-5.7e-5 -4.0008-1.7925-4-4.0019 3.2431e-4 -2.2086 1.7911-3.9981 4-3.9981zm0 2.025c-0.55228 0-1 0.44772-1 1s0.44772 1 1 1c0.55228-1e-7 1-0.44772 1-1s-0.44772-1-1-1z"/><path d="m6 7.125v8.875h-2l-2-2v-0.975l1-1v-1l-1-1.025v-2.975z" stroke-width="1.211"/></g></svg>
