<?xml version="1.0" encoding="UTF-8"?>
<svg width="16" height="16" fill="none" version="1.1" viewBox="0 0 16 16" xml:space="preserve" xmlns="http://www.w3.org/2000/svg"><path d="m4.5 4a0.5 0.5 0 0 0-0.35352 0.14648 0.5 0.5 0 0 0 0 0.70703l3.1465 3.1465-3.1465 3.1465a0.5 0.5 0 0 0 0 0.70703 0.5 0.5 0 0 0 0.70703 0l3.1465-3.1465 3.1465 3.1465a0.5 0.5 0 0 0 0.70703 0 0.5 0.5 0 0 0 0-0.70703l-3.1465-3.1465 3.1445-3.1426a0.5 0.5 0 0 0 0-0.70703 0.5 0.5 0 0 0-0.70703 0l-3.1445 3.1426-3.1465-3.1465a0.5 0.5 0 0 0-0.35352-0.14648z" color="#000000" fill="#6c707e" stroke-linecap="round" stroke-linejoin="round" stroke-miterlimit="0" style="paint-order:fill markers stroke"/></svg>
