<?xml version="1.0" encoding="UTF-8"?>
<svg width="16" height="16" version="1.1" viewBox="0 0 16 16" xml:space="preserve" xmlns="http://www.w3.org/2000/svg"><path d="m5.5 3c-1.9508-3.34e-5 -5.5 0.28974-5.5 2v8.9902c0 1.5127 3.125 2.0129 5.5 2.0098 1.7535-0.002363 3.9142-0.27393 4.9258-1.0195a2.5002 2.5002 0 0 1-1.375-0.45117c-0.82084 0.26744-2.0995 0.4707-3.5508 0.4707-2.5 0-4.5-0.59961-4.5-1.0996v-1.7012s1 0.80469 4.5 0.80469c0.78863 0 1.4442-0.042232 1.9961-0.10547l-0.84766-0.94336c-0.36691 0.027639-0.75006 0.044922-1.1484 0.044922-2.5 0-4.5-0.59961-4.5-1.0996v-1.7051s0.88064 0.70732 3.8789 0.79492l-0.73633-0.81836a2.5002 2.5002 0 0 1-0.17188-0.25c-1.7375-0.17737-2.9707-0.62924-2.9707-1.0215v-1.7051s0.62405 0.49641 2.5879 0.70898a2.5002 2.5002 0 0 1 0.47656-0.95312c-1.7804-0.12255-3.0645-0.47252-3.0645-0.95117 0-0.6 2.0147-1 4.5-1 0.16896 0 0.33587 0.0022246 0.5 0.0058594v-0.99609c-0.17433-0.0055586-0.34357-0.0097629-0.5-0.0097656zm5 5a2.5002 2.5002 0 0 1-0.36133 0.36133l0.36133 0.40234 0.36133-0.40234a2.5002 2.5002 0 0 1-0.36133-0.36133z" fill="#6c707e"/><g stroke-linejoin="round" stroke-miterlimit="0"><path d="m8.5 1.5h4v6h2.5l-4.5 5-4.5-5h2.5z" color="#000000" fill="#f2fcf3" style="-inkscape-stroke:none"/><path d="m8.5 1a0.50005 0.50005 0 0 0-0.5 0.5v5.5h-2a0.50005 0.50005 0 0 0-0.37109 0.83398l4.5 5a0.50005 0.50005 0 0 0 0.74219 0l4.5-5a0.50005 0.50005 0 0 0-0.37109-0.83398h-2v-5.5a0.50005 0.50005 0 0 0-0.5-0.5zm0.5 1h3v5.5a0.50005 0.50005 0 0 0 0.5 0.5h1.3789l-3.3789 3.7539-3.3789-3.7539h1.3789a0.50005 0.50005 0 0 0 0.5-0.5z" color="#000000" fill="#208a3c" style="-inkscape-stroke:none"/></g></svg>
