<?xml version="1.0" encoding="UTF-8"?>
<svg width="16" height="16" fill="none" version="1.1" viewBox="0 0 16 16" xml:space="preserve" xmlns="http://www.w3.org/2000/svg"><g fill="#ced0d6"><path transform="translate(-1 -1)" d="m4 2c-1.0993 0-2 0.90065-2 2v9c0 1.0993 0.90065 2 2 2h4.0527a2.5002 2.5002 0 0 1-0.052734-0.5v-0.5h-4c-0.56265 0-1-0.43735-1-1v-9c0-0.56265 0.43735-1 1-1h7c0.56265 0 1 0.43735 1 1v2.0723a2.5002 2.5002 0 0 1 0.74414 0.2832l0.25586 0.15234v-2.5078c0-1.0993-0.90065-2-2-2h-7z" style="-inkscape-stroke:none"/><rect x="3.5" y="4" width="6" height="1" rx=".5"/><path d="m4 5.9941c-0.277 0-0.5 0.223-0.5 0.5v0.00586c0 0.277 0.223 0.5 0.5 0.5l3.2148-4.13e-5c0.17849-0.40098 0.45938-0.7479 0.81445-1.0059l-4.0293 4.07e-5z"/><path d="m4 8c-0.277 0-0.5 0.223-0.5 0.5s0.223 0.5 0.5 0.5l3-1e-7v-1z"/><path d="m4 9.9941c-0.277-3.8e-6 -0.5 0.223-0.5 0.5v0.0059c0 0.277 0.223 0.5 0.5 0.5l3 4.1e-5v-1c0-2e-3 -2.3e-5 -0.0039 0-0.0059z"/></g><g transform="translate(.50098 -.013811)"><path d="m8.499 8.5138c0-1.1777 1.2951-1.8961 2.2942-1.2725l4.002 2.4978c0.941 0.5874 0.941 1.9577 0 2.545l-4.002 2.4978c-0.9991 0.6236-2.2942-0.0947-2.2942-1.2724zm1.7647-0.42417c-0.333-0.20786-0.7647 0.03159-0.7647 0.42417v4.9957c0 0.3925 0.4317 0.632 0.7647 0.4241l4.002-2.4978c0.3137-0.1958 0.3137-0.6525 0-0.8483z" clip-rule="evenodd" fill="#57965c" fill-rule="evenodd"/><path d="m9.499 8.5138c0-0.39258 0.4317-0.63202 0.7647-0.42416l4.002 2.4978c0.3137 0.1958 0.3137 0.6526 0 0.8484l-4.002 2.4978c-0.333 0.2079-0.7647-0.0316-0.7647-0.4242z" fill="#253627"/></g></svg>
