<?xml version="1.0" encoding="UTF-8"?>
<svg width="16" height="16" fill="none" version="1.1" viewBox="0 0 16 16" xml:space="preserve" xmlns="http://www.w3.org/2000/svg"><g fill="#6c707e"><path transform="translate(-1 -1)" d="m4 2c-1.0993 0-2 0.90065-2 2v9c0 1.0993 0.90065 2 2 2h5v-1h-5c-0.56265 0-1-0.43735-1-1v-9c0-0.56265 0.43735-1 1-1h7c0.56265 0 1 0.43735 1 1v2.9863c0.32708 0.0968 0.66339 0.26121 1 0.51367v-3.5c0-1.0993-0.90065-2-2-2h-7z" color="#000000" style="-inkscape-stroke:none"/><rect transform="translate(-1 -1)" x="4" y="4" width="7" height="1" rx=".5"/><rect x="3" y="5" width="7" height="1.0059" rx=".5"/><path d="m3.5 8.9941c-0.277 0-0.5 0.223-0.5 0.5v0.0058594c0 0.277 0.223 0.5 0.5 0.5h4.5v-1c0-0.0019946-2.31e-5 -0.0038704 0-0.0058594h-4.5z"/><path d="m3.5 7c-0.277 0-0.5 0.223-0.5 0.5s0.223 0.5 0.5 0.5h4.5v-1h-4.5z"/><path d="m3.5 10.994c-0.277 0-0.5 0.223-0.5 0.5v0.0059c0 0.277 0.223 0.5 0.5 0.5h4.5v-1c0-2e-3 -2.3e-5 -0.0039 0-0.0059z"/></g><g transform="translate(.50098 -.013811)"><path d="m8.499 8.5138c0-1.1777 1.2951-1.8961 2.2942-1.2725l4.002 2.4978c0.941 0.5874 0.941 1.9577 0 2.545l-4.002 2.4978c-0.9991 0.6236-2.2942-0.0947-2.2942-1.2724zm1.7647-0.42417c-0.333-0.20786-0.7647 0.03159-0.7647 0.42417v4.9957c0 0.3925 0.4317 0.632 0.7647 0.4241l4.002-2.4978c0.3137-0.1958 0.3137-0.6525 0-0.8483z" clip-rule="evenodd" fill="#208a3c" fill-rule="evenodd"/><path d="m9.499 8.5138c0-0.39258 0.4317-0.63202 0.7647-0.42416l4.002 2.4978c0.3137 0.1958 0.3137 0.6526 0 0.8484l-4.002 2.4978c-0.333 0.2079-0.7647-0.0316-0.7647-0.4242z" fill="#f2fcf3"/></g></svg>
