<?xml version="1.0" encoding="UTF-8"?>
<svg width="16" height="16" version="1.1" viewBox="0 0 16 16" xml:space="preserve" xmlns="http://www.w3.org/2000/svg"><path transform="translate(.0078041)" d="m3.4844 1.8027c-0.51562 0.0090225-0.98438 0.4246-0.98438 1.002v10.391c0 0.7698 0.83333 1.2521 1.5 0.86719l2.7891-1.6094 2.9883-4.9824a2.0002 2.0002 0 0 1 1.7148-0.9707 2.0002 2.0002 0 0 1 0.55664 0.085938l-8.0488-4.6484c-0.16667-0.096225-0.34375-0.13777-0.51562-0.13477zm9.4082 5.2695a2.0002 2.0002 0 0 1 0.31445 0.39844l0.29102 0.48438c-0.014077-0.32164-0.17942-0.63636-0.49805-0.82031l-0.10742-0.0625z" color="#000000" fill="#f2fcf3" style="-inkscape-stroke:none"/><path transform="translate(.0078041)" d="m3.4844 1c-0.77051 0.022339-1.4844 0.6773-1.4844 1.5645v10.871c0 1.1829 1.2708 1.9528 2.25 1.3613l1.7754-1.0723 1.1387-1.8984-3.4141 2.0625c-0.35418 0.21393-0.75-0.025283-0.75-0.45312v-10.871c0-0.42785 0.39583-0.66705 0.75-0.45312l7.3516 4.4395a2.0002 2.0002 0 0 1 0.39062-0.050781 2.0002 2.0002 0 0 1 1.7148 0.9707l0.67188 1.1191c0.2548-0.68598 0.045628-1.5418-0.62891-1.9492l-9-5.4375c-0.24479-0.14786-0.50879-0.21057-0.76562-0.20312z" color="#000000" fill="#208a3c" stroke-width="1.0228" style="-inkscape-stroke:none"/><path d="m11.5 8.5-4.5 7.5h9zm-0.5 2h1v2.5h-1zm0 3.5h1v1h-1z" fill="#f4af3d"/></svg>
