<?xml version="1.0" encoding="UTF-8"?>
<svg width="16" height="16" fill="none" version="1.1" viewBox="0 0 16 16" xml:space="preserve" xmlns="http://www.w3.org/2000/svg"><path d="m3.9854 8.9942c-0.277-5.447e-4 -0.5 0.223-0.5 0.5v0.0059c0 0.277 0.223 0.5 0.5 0.5l3 0.0059v-1c0-2e-3 -2.3e-5 -0.0039 0-0.0059zm1e-7 2.0059c-0.277-3e-6 -0.5 0.223-0.5 0.5v0.0059c0 0.277 0.223 0.5 0.5 0.5l3 0.0059v-1c0-2e-3 -2.3e-5 -0.0039 0-0.0059zm0-3.9941c-0.277-0.00125-0.5 0.223-0.5 0.5s0.223 0.49875 0.5 0.5l3 4.79e-5v-1zm0-2.0059c-0.277 0-0.5 0.223-0.5 0.5v0.00586c0 0.277 0.223 0.5 0.5 0.5l3.2148-1.215e-4c0.17849-0.40098 0.7998-1.0143 1.7998-1.0058l-5.0146 6.04e-5zm-1e-7 -1.9941h6c0.277 0 0.5 0.223 0.5 0.5v1e-7c0 0.277-0.223 0.5-0.5 0.5h-6c-0.277 0-0.5-0.223-0.5-0.5v-1e-7c0-0.277 0.223-0.5 0.5-0.5zm-1-3c-1.0993 0-2 0.90065-2 2v11c0 1.0993 0.90065 2.0015 2 2l4.5146-0.006001c-0.34688-0.28668-0.5146-0.694-0.5146-0.994h-4c-0.56265 0-1-0.43735-1-1v-11c0-0.56265 0.43739-1.007 1-1l8 0.09996c0.56261 0.00703 1 0.43735 1 1l0.0146 3.2271 1 0.66694-0.0146-3.894c-0.0041-1.0993-0.90074-1.9863-2-2z" fill="#6c707e"/><g transform="translate(.50098 -.013811)"><path d="m8.499 8.5138c0-1.1777 1.2951-1.8961 2.2942-1.2725l4.002 2.4978c0.941 0.5874 0.941 1.9577 0 2.545l-4.002 2.4978c-0.9991 0.6236-2.2942-0.0947-2.2942-1.2724zm1.7647-0.42417c-0.333-0.20786-0.7647 0.03159-0.7647 0.42417v4.9957c0 0.3925 0.4317 0.632 0.7647 0.4241l4.002-2.4978c0.3137-0.1958 0.3137-0.6525 0-0.8483z" clip-rule="evenodd" fill="#208a3c" fill-rule="evenodd"/><path d="m9.499 8.5138c0-0.39258 0.4317-0.63202 0.7647-0.42416l4.002 2.4978c0.3137 0.1958 0.3137 0.6526 0 0.8484l-4.002 2.4978c-0.333 0.2079-0.7647-0.0316-0.7647-0.4242z" fill="#f2fcf3"/></g></svg>
