<?xml version="1.0" encoding="UTF-8"?>
<svg width="16" height="16" version="1.1" viewBox="0 0 16 16" xml:space="preserve" xmlns="http://www.w3.org/2000/svg"><path d="m5.5 0c-1.9508-3.3397e-5 -5.5 0.28974-5.5 2v8.9902c0 1.0258 1.4379 1.5845 3.1035 1.8379a2.5 2.5 0 0 1 0.50195-0.94727c-1.5424-0.1998-2.6055-0.61629-2.6055-0.98047v-1.7012s1 0.80469 4.5 0.80469c0.42849 0 0.81752-0.012055 1.1738-0.033203a2.5002 2.5002 0 0 1 0.058594-0.23828l0.88086-0.88086c-0.62882 0.092467-1.3475 0.14844-2.1133 0.14844-2.5 0-4.5-0.59961-4.5-1.0996v-1.7051s1 0.80469 4.5 0.80469c3.5 0 4.5-0.80469 4.5-0.80469v0.26953l0.73242-0.73242a2.5002 2.5002 0 0 1 0.26758-0.21875v-3.5137c0-1.6-3.5492-2-5.5-2zm0 1c2.4853 0 4.5 0.4 4.5 1s-2.0147 1-4.5 1c-2.4853 0-4.5-0.4-4.5-1s2.0147-1 4.5-1zm-4.5 2.1953s1 0.80469 4.5 0.80469c3.5 0 4.5-0.80469 4.5-0.80469v1.7051c0 0.5-2 1.0996-4.5 1.0996-2.5 0-4.5-0.59961-4.5-1.0996v-1.7051z" fill="#6c707e"/><path transform="translate(0,8.2e-5)" d="m8.5 15.5 2-2-2-2m4 0-2-2 2-2m3 2h-4.5m-1 4h-4.5z" fill="none" stroke="#3574f0" stroke-linecap="round" stroke-linejoin="round"/></svg>
