<?xml version="1.0" encoding="UTF-8"?>
<svg width="16" height="16" version="1.1" viewBox="0 0 16 16" xml:space="preserve" xmlns="http://www.w3.org/2000/svg"><path transform="translate(-1,-1)" d="m3 1c-1.0993 0-2 0.90065-2 2v9c0 1.0993 0.90065 2 2 2h1.5703c0.10149-0.38785 0.3172-0.73626 0.61914-1h-2.1895c-0.56265 0-1-0.43735-1-1v-9c0-0.56265 0.43735-1 1-1h7c0.56265 0 1 0.43735 1 1v5.1719l1-1v-4.1719c0-1.0993-0.90065-2-2-2zm1 3c-0.277 0-0.5 0.223-0.5 0.5s0.223 0.5 0.5 0.5l5 1e-7c0.277 0 0.5-0.223 0.5-0.5s-0.223-0.5-0.5-0.5zm0 2.002c-0.277 0-0.5 0.22144-0.5 0.49805 0 0.2766 0.223 0.5 0.5 0.5l2 1e-7c0.277 0 0.5-0.2234 0.5-0.5s-0.223-0.49805-0.5-0.49805zm0 1.998c-0.277 0-0.5 0.223-0.5 0.5s0.223 0.5 0.5 0.5l3 1e-7c0.277 0 0.5-0.223 0.5-0.5s-0.223-0.5-0.5-0.5zm0 2c-0.277 0-0.5 0.223-0.5 0.5s0.223 0.5 0.5 0.5h4c0.277 0 0.5-0.223 0.5-0.5s-0.223-0.5-0.5-0.5z" fill="#ced0d6"/><path transform="translate(0,8.2e-5)" d="m8.5 15.5 2-2-2-2m-3 2h4.5m2.5-2-2-2 2-2m3 2h-4.5" fill="none" stroke="#548af7" stroke-linecap="round" stroke-linejoin="round"/></svg>
