<?xml version="1.0" encoding="UTF-8"?>
<svg width="16" height="16" version="1.1" viewBox="0 0 16 16" xml:space="preserve" xmlns="http://www.w3.org/2000/svg"><path transform="translate(-1,-1)" d="m1.5 5c-0.277 0-0.5 0.223-0.5 0.5s0.223 0.5 0.5 0.5h10c0.277 0 0.5-0.223 0.5-0.5s-0.223-0.5-0.5-0.5zm0 3.002c-0.277 0-0.5 0.22144-0.5 0.49805 0 0.2766 0.223 0.50001 0.5 0.5h7.5c0.277 0 0.5-0.2234 0.5-0.5s-0.223-0.49806-0.5-0.49805zm0 2.998c-0.277 0-0.5 0.223-0.5 0.5s0.223 0.5 0.5 0.5h5c0.277 0 0.5-0.223 0.5-0.5s-0.223-0.5-0.5-0.5zm0-9c-0.277 0-0.5 0.223-0.5 0.5s0.223 0.5 0.5 0.5h10c0.277 0 0.5-0.223 0.5-0.5s-0.223-0.5-0.5-0.5z" fill="#ced0d6"/><path transform="translate(0,8.2e-5)" d="m8.5 15.5 2-2-2-2m-3 2h4.5m2.5-2-2-2 2-2m3 2h-4.5" fill="none" stroke="#548af7" stroke-linecap="round" stroke-linejoin="round"/></svg>
