<?xml version="1.0" encoding="UTF-8"?>
<svg width="16" height="16" fill="none" version="1.1" viewBox="0 0 16 16" xml:space="preserve" xmlns="http://www.w3.org/2000/svg"><g transform="translate(.5 .064534)"><path d="m4.9844 1.8007c-0.51562 0.0090225-0.98438 0.42265-0.98438 1v2.1387a6.5 6.4984 0 0 1 6.4941 6.2383l4.0059-2.3145c0.6667-0.3849 0.6667-1.3475 0-1.7324l-9-5.1953c-0.16667-0.096225-0.34376-0.13777-0.51562-0.13477z" fill="#3d3223" style="-inkscape-stroke:none"/><path d="m4.9863 0.99797c-0.77051 0.022339-1.4863 0.67725-1.4863 1.5645v2.4082a6.5 6.5 0 0 1 0.5-0.035156 6.5 6.5 0 0 1 0.5 0.021484v-2.3945c0-0.42785 0.39583-0.66705 0.75-0.45312l9 5.4355c0.35421 0.21395 0.35421 0.69231 0 0.90625l-3.7891 2.2891a6.5 6.5 0 0 1 0.039062 0.69531 6.5 6.5 0 0 1-0.037109 0.51172l4.2871-2.5898c0.97919-0.59142 0.97918-2.1273 0-2.7188l-9-5.4375c-0.24479-0.14786-0.50684-0.21056-0.76367-0.20312z" fill="#f2c55c" style="-inkscape-stroke:none"/></g><g transform="translate(-7.002 1.0119e-5)"><path transform="translate(15,-12.5)" d="m-3.5 22v2l1.9827 1" fill="none" stroke="#ced0d6" stroke-linecap="round" stroke-linejoin="round"/><path d="m11.502 7.0039a4.4939 4.4962 0 0 0-4.4941 4.4961 4.4939 4.4962 0 0 0 4.4941 4.4961 4.4939 4.4962 0 0 0 4.4941-4.4961 4.4939 4.4962 0 0 0-4.4941-4.4961zm0 0.99609a3.4978 3.4997 0 0 1 3.498 3.5 3.4978 3.4997 0 0 1-3.498 3.5 3.4978 3.4997 0 0 1-3.498-3.5 3.4978 3.4997 0 0 1 3.498-3.5z" fill="#ced0d6" stroke-width="1.082"/></g></svg>
