<?xml version="1.0" encoding="UTF-8"?>
<svg width="16" height="16" version="1.1" viewBox="0 0 16 16" xml:space="preserve" xmlns="http://www.w3.org/2000/svg"><path d="m6.5 2c-1.9508-3.34e-5 -5.5 0.28974-5.5 2v8.9902c0 1.5127 3.125 2.0129 5.5 2.0098 2.375-0.0032 5.5-0.5 5.5-2v-1.0625a2.5002 2.5002 0 0 1-1 0.009766v0.95312c0 0.5-2 1.0996-4.5 1.0996-2.5 0-4.5-0.59961-4.5-1.0996v-1.7012s1 0.80469 4.5 0.80469c1.8161 0 2.9553-0.21556 3.6348-0.42383a2.5002 2.5002 0 0 1-0.80664-0.85742c-0.77095 0.16631-1.7528 0.27734-2.8281 0.27734-2.5 0-4.5-0.59961-4.5-1.0996v-1.7051s1 0.80469 4.5 0.80469c0.91932 0 1.6621-0.054928 2.2637-0.13672l-0.21484-0.86328h-2.0488c-2.5 0-4.5-0.59961-4.5-1.0996v-1.7051s0.506 0.40324 2.0371 0.63867a2.5 2.5 0 0 1-0.037109-0.33398 2.5 2.5 0 0 1 0.09375-0.64453c-1.2568-0.16718-2.0938-0.46942-2.0938-0.85547 0-0.6 2.0147-1 4.5-1h3.6074l0.09375-0.53516c-1.1688-0.34891-2.6608-0.46483-3.7012-0.46484z" fill="#ced0d6"/><path d="m6.5 5.5h4l1 4 1.5-8.5 1 2.5h1" fill="none" stroke="#ff6015" stroke-linecap="round" stroke-linejoin="round" stroke-miterlimit="0" style="paint-order:fill markers stroke"/></svg>
