<?xml version="1.0" encoding="UTF-8"?>
<svg width="16" height="16" version="1.1" viewBox="0 0 16 16" xml:space="preserve" xmlns="http://www.w3.org/2000/svg"><path d="m6.5 2c-1.9508-3.34e-5 -5.5 0.28974-5.5 2v8.9902c0 1.5127 3.125 2.0129 5.5 2.0098 2.375-0.003174 5.5-0.5 5.5-2v-2.1055a2.5002 2.5002 0 0 1-1.9297-0.37109c-0.81992 0.27068-2.1072 0.47656-3.5703 0.47656-2.5 0-4.5-0.59961-4.5-1.0996v-1.7051s1 0.80469 4.5 0.80469c1.0587 0 1.8846-0.073175 2.5273-0.17578a2.5002 2.5002 0 0 1-0.042969-0.32422c0-0.12012-0.08518-0.39077-0.26367-0.66602-0.65411 0.10221-1.4105 0.16602-2.2207 0.16602-2.5 0-4.5-0.59961-4.5-1.0996v-1.7051s0.81706 0.64889 3.5293 0.7793a2.5002 2.5002 0 0 1-0.43945-1.0215c-1.7938-0.12092-3.0898-0.47217-3.0898-0.95312 0-0.51973 1.5134-0.88891 3.5332-0.97852a2.5002 2.5002 0 0 1 1.8047-1c-0.29854-0.0155-0.58257-0.02148-0.83789-0.021484zm-4.5 9.1992s1 0.80469 4.5 0.80469c3.5 0 4.5-0.80469 4.5-0.80469v1.7012c0 0.5-2 1.0996-4.5 1.0996-2.5 0-4.5-0.59961-4.5-1.0996v-1.7012z" fill="#ced0d6"/><path d="m7.5156 4.5c1.9844 0 3.9844-2 3.9844-4.0156 0 2.0156 2.0018 4.0156 4.0156 4.0156-2.0156 0-4.0156 1.9568-4.0156 4 0-2-1.9982-4-3.9844-4z" fill="none" stroke="#f2c55c" stroke-linecap="round" stroke-linejoin="round" stroke-miterlimit="0" style="paint-order:fill markers stroke"/></svg>
