<?xml version="1.0" encoding="UTF-8"?>
<svg width="16" height="16" version="1.1" viewBox="0 0 16 16" xml:space="preserve" xmlns="http://www.w3.org/2000/svg"><path d="m6.5 2c-1.9508-3.34e-5 -5.5 0.28974-5.5 2v8.9902c0 1.5127 3.125 2.0129 5.5 2.0098 2.375-0.0032 5.5-0.5 5.5-2v-3.4805c-0.34062 1.1446-1.4246 1.5091-2.207 1.0879-0.81934 0.22794-1.9861 0.39258-3.293 0.39258-2.5 0-4.5-0.59961-4.5-1.0996v-1.7051s1 0.80469 4.5 0.80469c0.95658 0 1.7203-0.061162 2.334-0.14844-0.072209-0.31651-0.14456-0.66604-0.20898-1.002-0.63155 0.093472-1.3546 0.15039-2.125 0.15039-2.5 0-4.5-0.59961-4.5-1.0996v-1.7051s0.75443 0.60478 2.3 0.70478c-0.049219-0.3-0.046925-0.55036-0.01285-1.0192-1.3644-0.16103-2.2871-0.47526-2.2871-0.88086 0-0.6 2.0147-1 4.5-1 1.6099 0 3.0192 0.1679 3.8145 0.44922l0.24219-0.86523c-1.2064-0.44185-2.9067-0.58396-4.0566-0.58398zm-4.5 9.1992s1 0.80469 4.5 0.80469 4.5-0.80469 4.5-0.80469v1.7012c0 0.5-2 1.0996-4.5 1.0996s-4.5-0.59961-4.5-1.0996z" fill="#ced0d6" stroke-width="0"/><path transform="translate(2.1 .5)" d="m10.3-9.2549e-8c-0.3-1.5e-7 -0.6 0.2-0.7 0.6l-1.2 6.5-0.4-1.9c-0.15859-0.6-0.7-0.7-1-0.7h-3.5c-0.3 0-0.5125 0-0.5 0.5s0.19999 0.5 0.5 0.5h2.9c0.5 0 0.65151 0.2 0.85151 1l0.64849 2.5c0.22188 0.5 0.8 0.5 1 0 0.8-3.5 1.5-7.5 1.5-7.5s0.1 0.4 0.4 1.5c0.2 0.6 0.7 0.5 1 0.5h1.1c0.3 0 0.5 0 0.5-0.5s-0.2-0.5-0.5-0.5h-1.2l-0.6-2c-0.095888-0.19178-0.3-0.5-0.6-0.5z" fill="#ff6015" stroke-width="1.2165"/></svg>
