<?xml version="1.0" encoding="UTF-8"?>
<svg width="16" height="16" version="1.1" viewBox="0 0 16 16" xml:space="preserve" xmlns="http://www.w3.org/2000/svg"><path d="m6.5 1c-1.9507-3.344e-5 -5.5 0.28974-5.5 2v8.9902c0 1.5127 3.125 2.0129 5.5 2.0098 0.48029-6.42e-4 0.99041-0.023126 1.5-0.068359v-1.0059c-0.46903 0.046881-0.97231 0.074219-1.5 0.074219-2.5 0-4.5-0.59961-4.5-1.0996v-1.7012s1 0.80469 4.5 0.80469c0.56547 0 1.0587-0.023406 1.5-0.058594v-1.0195c-0.46903 0.046881-0.97231 0.074219-1.5 0.074219-2.5 0-4.5-0.59961-4.5-1.0996v-1.7051s1 0.80469 4.5 0.80469c0.58474 0 1.0916-0.024984 1.543-0.0625 0.21686-0.80559 1.5945-1.4462 2.5703-0.98242l1.3867 0.79688v-4.752c0-1.6-3.5492-2-5.5-2zm0 1c2.4853 0 4.5 0.4 4.5 1s-2.0147 1-4.5 1-4.5-0.4-4.5-1 2.0147-1 4.5-1zm-4.5 2.1953s1 0.80469 4.5 0.80469c3.5 0 4.5-0.80469 4.5-0.80469v1.7051c0 0.5-2 1.0996-4.5 1.0996-2.5 0-4.5-0.59961-4.5-1.0996v-1.7051z" fill="#6c707e" stroke-width="0"/><path d="m10.3 7.8c-0.8-0.4-1.3 0.2-1.3 0.8v4.9c0 0.59767 0.5 1.1 1.3 0.8l4.2-2.4c0.7-0.49484 0.7-1.2052 0-1.7zm-0.3 1 3.9 2.2469-3.9 2.2531z" fill="#62b543"/><path d="m10.614 6.9545c-1.0618-0.50469-2.6 0.3-2.6 1.2v5.7813c0 0.91869 1.5382 1.5972 2.6 1.2187l4.7-2.6c0.92909-0.62435 0.92909-2.2757 0-2.9z" display="none" fill="#bc574a" fill-opacity=".61374" stroke-width="1.2941"/></svg>
