<?xml version="1.0" encoding="UTF-8"?>
<svg width="16" height="16" version="1.1" viewBox="0 0 16 16" xml:space="preserve" xmlns="http://www.w3.org/2000/svg"><g fill="#6e6e6e"><path transform="matrix(-1.2 0 0 .66667 16.6 -.66672)" d="m13 15.399v3.0058c0 0.73562-1.903 1.8903-4.3473 2.0713a4.5833 8.25 0 0 0 0.17741-1.9189 4.5833 8.25 0 0 0-0.019531-1.0957c2.3678-0.21856 4.1895-1.3428 4.1895-2.0625z"/><path transform="matrix(-1.2 0 0 .66667 16.6 -.66672)" d="m13 10.899v3.0058c0 0.73627-1.9064 1.8919-4.3538 2.0713a4.5833 8.25 0 0 0-0.87077-2.9795c0.074335 0.001957 0.14945 0.00293 0.22461 0.00293 2.75 0 5-1.3006 5-2.1006z"/><path transform="matrix(-1.2 0 0 .66667 16.6 -.66672)" d="m13 6.3995v3.0058c0 0.8-2.25 2.0947-5 2.0947-0.4133 0-0.81314-0.032546-1.1979-0.08496a4.5833 8.25 0 0 0-2.2965-1.4033 4.5833 8.25 0 0 0-1.0303 0.12598c-0.30189-0.25669-0.47526-0.5132-0.47526-0.73242v-3.0058c0 0.8 2.25 2.1006 5 2.1006s5-1.3006 5-2.1006z"/><path transform="matrix(-1.2 0 0 .66667 16.6 -.66672)" d="m13 4.75c0 1.242-2.2383 2.25-5 2.25s-5-1.008-5-2.25 2.2383-2.25 5-2.25 5 1.008 5 2.25z" stroke-width="1.118"/></g><g transform="translate(.0039002 .0039002)"><path transform="translate(15,-12.5)" d="m-3.5 22v2l1.9827 1" fill="none" stroke="#6e6e6e" stroke-linecap="round" stroke-linejoin="round"/><path d="m11.502 7.0039a4.4939 4.4962 0 0 0-4.4941 4.4961 4.4939 4.4962 0 0 0 4.4941 4.4961 4.4939 4.4962 0 0 0 4.4941-4.4961 4.4939 4.4962 0 0 0-4.4941-4.4961zm0 0.99609a3.4978 3.4997 0 0 1 3.498 3.5 3.4978 3.4997 0 0 1-3.498 3.5 3.4978 3.4997 0 0 1-3.498-3.5 3.4978 3.4997 0 0 1 3.498-3.5z" fill="#6e6e6e" stroke-width="1.082"/></g></svg>
