<?xml version="1.0" encoding="UTF-8"?>
<svg width="16" height="16" version="1.1" viewBox="0 0 16 16" xml:space="preserve" xmlns="http://www.w3.org/2000/svg"><g fill="#6e6e6e"><path transform="matrix(-1.2 0 0 .66667 16.6 -.66672)" d="m13 15.399v3.0058c0 0.6454-1.4649 1.6129-3.4749 1.9629a5.4216 9.75 0 0 0 0.13835-1.7549 5.4216 9.75 0 0 0-0.024414-1.2685c1.9509-0.36733 3.361-1.3122 3.361-1.9453z"/><path transform="matrix(-1.2 0 0 .66667 16.6 -.66672)" d="m13 10.899v3.0058c0 0.64681-1.4711 1.615-3.488 1.9629a5.4216 9.75 0 0 0-0.71615-2.9033c2.375-0.21524 4.2041-1.3442 4.2041-2.0654z"/><path transform="matrix(-1.2 0 0 .66667 16.6 -.66672)" d="m13 6.3995v3.0058c0 0.7853-2.1694 2.0457-4.8503 2.0918a5.4216 9.75 0 0 0-3.5921-2.9824 5.4216 9.75 0 0 0-1.5576 0.25488v-2.3701c0 0.8 2.25 2.1006 5 2.1006 2.75 0 5-1.3006 5-2.1006z"/><path transform="matrix(-1.2 0 0 .66667 16.6 -.66672)" d="m13 4.75c0 1.242-2.2383 2.25-5 2.25s-5-1.008-5-2.25 2.2383-2.25 5-2.25 5 1.008 5 2.25z" stroke-width="1.118"/></g><g transform="translate(.0039002 .0039002)"><path transform="translate(15,-12.5)" d="m-3.5 22v2l1.9827 1" fill="none" stroke="#6e6e6e" stroke-linecap="round" stroke-linejoin="round"/><path d="m11.502 7.0039a4.4939 4.4962 0 0 0-4.4941 4.4961 4.4939 4.4962 0 0 0 4.4941 4.4961 4.4939 4.4962 0 0 0 4.4941-4.4961 4.4939 4.4962 0 0 0-4.4941-4.4961zm0 0.99609a3.4978 3.4997 0 0 1 3.498 3.5 3.4978 3.4997 0 0 1-3.498 3.5 3.4978 3.4997 0 0 1-3.498-3.5 3.4978 3.4997 0 0 1 3.498-3.5z" fill="#6e6e6e" stroke-width="1.082"/></g></svg>
