<?xml version="1.0" encoding="UTF-8"?>
<svg width="16" height="16" version="1.1" viewBox="0 0 16 16" xml:space="preserve" xmlns="http://www.w3.org/2000/svg"><path d="m6.2539 2.0137c-1.9867 0.023097-5.2539 0.35185-5.2539 1.9961v8.9902c0 1.5127 3.125 2.0129 5.5 2.0098 2.375-0.0032 5.5-0.5 5.5-2v-4.4883a4.5 4.5 0 0 1-1 0.35547v1.0332c0 0.5-2 1.0996-4.5 1.0996-2.5 0-4.5-0.59961-4.5-1.0996v-1.7051s1 0.80469 4.5 0.80469c0.98748 0 1.7694-0.064375 2.3926-0.15625a4.5 4.5 0 0 1-1.7168-0.86133c-0.22094 0.0096629-0.44515 0.017578-0.67578 0.017578-2.5 0-4.5-0.59961-4.5-1.0996v-1.7051s0.86201 0.68893 3.7676 0.79102a4.5 4.5 0 0 1-0.23242-1.0078c-2.0208-0.089448-3.5352-0.45861-3.5352-0.97852 0-0.53898 1.6276-0.91706 3.7598-0.98828a4.5 4.5 0 0 1 0.49414-1.0078zm-4.2539 9.1953s1 0.80469 4.5 0.80469c3.5 0 4.5-0.80469 4.5-0.80469v1.7012c0 0.5-2 1.0996-4.5 1.0996-2.5 0-4.5-0.59961-4.5-1.0996v-1.7012z" fill="#6c707e" stroke-width="0"/><g transform="translate(2.5,1)" fill="#389fd6"><path d="M 7.5,0 A 3.5,3.5 0 0 0 4,3.5 3.5,3.5 0 0 0 7.5,7 3.5,3.5 0 0 0 11,3.5 3.5,3.5 0 0 0 7.5,0 Z m 0,1 A 2.5,2.5 0 0 1 10,3.5 2.5,2.5 0 0 1 7.5,6 2.5,2.5 0 0 1 5,3.5 2.5,2.5 0 0 1 7.5,1 Z" stroke-width="0"/><path d="m9.5082 6.2754 0.78359-0.7836 2.4 2.3164s0.4082 0.3918 0.0082 0.7918-0.7918-0.0082-0.7918-0.0082z" fill-rule="evenodd" stroke-width=".55409"/></g></svg>
