<?xml version="1.0" encoding="UTF-8"?>
<svg width="13" height="13" version="1.1" viewBox="0 0 13 13" xml:space="preserve" xmlns="http://www.w3.org/2000/svg"><g transform="matrix(-1.1 0 0 .66667 14.3 .5366)" fill="#6e6e6e" stroke-width=".91287">
        <path d="m8 0.70974c2.7617 0 5 1.0081 5 2.25 0 0.87335-1.1098 1.6282-2.7273 2.001v-1.2656c-1.9726 0-2.9931-0.78682-3.4073-2.9238 0.36495-0.038166 0.74382-0.061523 1.1346-0.061523z"/>
        <path d="m13 4.6033v3.0058c0 0.8-2.25 2.0947-5 2.0947-0.22548 0-0.44627-0.012875-0.66406-0.029297 0.55974-1.0611 1.4943-1.4795 2.9368-1.4795v-1.79c1.6141-0.43147 2.7273-1.2398 2.7273-1.8017z"/>
        <path d="m 3,9.33175 c 0.54779,0.77398 0.81378,1.9972 0.88601,3.7851 C 3.32902,12.76723 3,12.39057 3,12.08565 Z" display="none"/><path d="m13 9.0798v3.0058c0 0.8-2.25 2.0947-5 2.0947-0.47217 0-0.92803-0.03819-1.3619-0.10547 0.00456-1.1943 0.07435-2.1756 0.22905-2.9678 0.36466 0.0471 0.74308 0.07324 1.1328 0.07324 2.75 0 5-1.3006 5-2.1006z"/>
        <path d="m8 15.695c-2.75 0-5-1.3-5-2.1v3.0053c0 0.8 2.25 2.0947 5 2.0947s5-1.2947 5-2.0947v-3.0053c0 0.8-2.25 2.1-5 2.1z"/>
    </g><path d="m9 0.5c0 2 1.5 3.5 3.5 3.5 0.7 0.1 0.7 0.9 0 1-2 0-3.5 1.5-3.5 3.5-0.1 0.7-0.9 0.7-1 0 0-2-1.5-3.5-3.5-3.5-0.7-0.1-0.7-0.9 0-1 2 0 3.5-1.5 3.4879-3.5 0.1121-0.7 0.9121-0.7 1.0121 0z" fill="#eda200" style="paint-order:fill markers stroke"/></svg>
