<?xml version="1.0" encoding="UTF-8"?>
<svg width="13" height="13" version="1.1" viewBox="0 0 13 13" xml:space="preserve" xmlns="http://www.w3.org/2000/svg"><g transform="matrix(-1.1 0 0 .66667 14.3 .53331)" fill="#afb1b3" stroke-width=".91287">
        <path d="m9.6282 0.8348c1.9607 0.30441 3.3718 1.1419 3.3718 2.1269 0 0.87717-1.1196 1.6358-2.7486 2.0068a4.0909 6.7396 0 0 0 0.021307-0.50683 4.0909 6.7396 0 0 0-0.64453-3.6269z"/>
        <path d="m13 4.6024v3.0058c0 0.72402-1.8444 1.8516-4.233 2.0596a4.0909 6.75 0 0 0 1.3175-3.2168c1.715-0.41704 2.9155-1.2651 2.9155-1.8486z"/>
        <path d="m13 9.0818v3.0058c0 0.8-2.25 2.0947-5 2.0947-1.8481 0-3.4671-0.58362-4.3324-1.21l1.2411-2.1269a4.0909 6.7398 0 0 0 1.2731 0.35449 4.0909 6.7398 0 0 0 0.66406-0.096679c0.37125 0.048866 0.75673 0.079101 1.1541 0.079101 2.75 0 5-1.3006 5-2.1006z"/>
        <path d="m13 13.596v3.0029c0 0.8-2.25 2.0947-5 2.0947-2.75 0-5-1.2947-5-2.0947v-2.4844l0.11009-0.1875c0.48211 0.7828 2.4964 1.7666 4.8899 1.7666 2.75 0 5-1.2976 5-2.0976z"/>
    </g><g transform="matrix(.74343 0 0 .75546 3.6224 -.36616)" fill="#3592c4" fill-rule="evenodd">
        <rect transform="rotate(-45,9.9,9.697)" x="8.9" y="6.869" width="2" height="5.657"/>
        <path d="m5.2119 9.7506c-2.6023 0-4.7119-2.0708-4.7119-4.6253 0-2.5545 2.1095-4.6253 4.7119-4.6253 2.6023 0 4.7119 2.0708 4.7119 4.6253 0 2.5545-2.1095 4.6253-4.7119 4.6253zm0-1.8501c1.5614 0 2.8271-1.2425 2.8271-2.7752 0-1.5327-1.2658-2.7752-2.8271-2.7752-1.5614 0-2.8271 1.2425-2.8271 2.7752 0 1.5327 1.2658 2.7752 2.8271 2.7752z" stroke-width=".98282"/>
    </g></svg>
