<?xml version="1.0" encoding="UTF-8"?>
<svg width="13" height="13" version="1.1" viewBox="0 0 13 13" xml:space="preserve" xmlns="http://www.w3.org/2000/svg"><g transform="matrix(-1.1 0 0 .66667 14.3 .53331)" fill="#afb1b3" stroke-width=".91287">
        <path d="m8 0.71175c2.7617 0 5 1.0081 5 2.25 0 0.87337-1.1098 1.6282-2.7273 2.001v-2.7627l-5 0.011719-0.16335-1.084c0.81652-0.26112 1.8126-0.41601 2.8906-0.41601z"/>
        <path d="m13 4.6024v3.0058c0 0.8-2.25 2.0947-5 2.0947-0.23041 0-0.45591-0.012172-0.67827-0.029297l0.22372-1.4736h2.7273v-1.7959c1.614-0.43147 2.7273-1.2398 2.7273-1.8017z"/>
        <path d="m3 9.0818c0 0.086029 0.028263 0.1771 0.078125 0.27246l0.63033 3.6416c-0.4464-0.31429-0.70845-0.63784-0.70845-0.9082v-3.0058z" display="none"/><path d="m13 9.0818v3.0058c0 0.8-2.25 2.0947-5 2.0947-0.46323 0-0.91051-0.04055-1.337-0.10547l0.44567-2.9443c0.28971 0.0294 0.58701 0.0498 0.89134 0.0498 2.75 0 5-1.3006 5-2.1006z"/>
        <path d="m8 15.695c-2.75 0-5-1.3-5-2.1v3.0053c0 0.8 2.25 2.0947 5 2.0947s5-1.2947 5-2.0947v-3.0053c0 0.8-2.25 2.1-5 2.1z"/>
    </g><path d="m10.016 1.4901e-8 -1.5156 6-0.5-3h-4v2h3l1 4h1.2l1.8-7 1 2h1v-2h-0.5l-1-2z" fill="#ff6015" stroke-width="1.2165"/></svg>
