<?xml version="1.0" encoding="UTF-8"?>
<svg width="13" height="13" version="1.1" viewBox="0 0 13 13" xml:space="preserve" xmlns="http://www.w3.org/2000/svg"><g transform="matrix(-1.1 0 0 .66667 14.3 .53331)" fill="#afb1b3" stroke-width=".91287">
        <path d="m8.5114 0.72347c2.5215 0.11528 4.4886 1.074 4.4886 2.2383 0 1.1729-1.9971 2.1318-4.5455 2.2353v-4.4736c0.018734 7.6099e-4 0.038144-8.5375e-4 0.056818 0z"/>
        <path d="m13 4.6024v3.0058c0 0.7554-2.0065 1.9519-4.5455 2.083v-3c2.5389-0.13158 4.5455-1.3335 4.5455-2.0889z"/>
        <path d="m13 9.0818v3.0058c0 0.7554-2.0065 1.949-4.5455 2.0801v-3c2.5389-0.13158 4.5455-1.3305 4.5455-2.0859zm-10 1.5703 2.5941 3.1963c-1.5424-0.43774-2.5941-1.2142-2.5941-1.7607v-1.4355z"/>
        <path d="m8 15.695c-2.75 0-5-1.3-5-2.1v3.0053c0 0.8 2.25 2.0947 5 2.0947s5-1.2947 5-2.0947v-3.0053c0 0.8-2.25 2.1-5 2.1z"/>
    </g><polygon transform="matrix(1 0 0 1.1111 -2 -6.6665)" points="8 6 15 10.5 8 15" fill="#62b543"/></svg>
