<?xml version="1.0" encoding="UTF-8"?>
<svg width="16" height="16" version="1.1" viewBox="0 0 16 16" xml:space="preserve" xmlns="http://www.w3.org/2000/svg"><path d="m16 12.5c0 1.933-1.567 3.5-3.5 3.5s-3.5-1.567-3.5-3.5 1.567-3.5 3.5-3.5 3.5 1.567 3.5 3.5" fill="#e05555"/><path d="m13 14v1h-1v-1zm0-4v3h-1v-3z" fill="#fff"/><path d="m7 1c-1.6 0-3 1-3 3l-1e-7 2.5-1.4885-1e-7 -4.659e-4 1.5 1.5-1e-7 -0.011048 5.5h-1.5v1.5h5v-1.5h-1.5l0.01105-5.5 1.5 1e-7 -0.01105-1.5h-1.5v-3c0-0.40039 0.4-1.0992 1.1992-1.0996 0.80078-3.906e-4 1.3008 0.6996 1.3008 1.0996h1.5c0-1.5-1.4-2.5-3-2.5z" fill="#000000"/></svg>
