<?xml version="1.0" encoding="UTF-8"?>
<svg width="16" height="16" version="1.1" viewBox="0 0 16 16" xml:space="preserve" xmlns="http://www.w3.org/2000/svg"><path d="m7 1c-1.6 0-3 1-3 3l-1e-7 2.5-1.4885-1e-7 -4.659e-4 1.5 1.5-1e-7 -0.011048 5.5h-1.5v1.5h5v-1.5h-1.5l0.011048-5.5 1.489 8e-7 1e-7 -1.5h-1.5v-3c0-0.40039 0.4-1.0992 1.1992-1.0996 0.80078-3.906e-4 1.3008 0.6996 1.3008 1.0996h1.5c0-1.5-1.4-2.5-3-2.5z"/><path d="m11.5 5.5c-1.2 0.63333-2.5 2.2167-2.5 4.75 0 2.5333 1.3 4.1167 2.5 4.75v-2c-0.90466-0.85239-1-1.807-1-2.757s0.22899-2.0255 1-2.743zm1 0v2c0.90925 0.85697 1 1.7961 1 2.7461 0 1.1017-0.23054 2.038-1 2.7539v2c1.2-0.63334 2.5-2.2167 2.5-4.75 0-2.5333-1.3-4.1167-2.5-4.75z" fill="#eb4a4a" stroke-width="1.1937"/></svg>
