<?xml version="1.0" encoding="UTF-8"?>
<svg width="16" height="16" version="1.1" viewBox="0 0 4.2333 4.2333" xml:space="preserve" xmlns="http://www.w3.org/2000/svg"><g transform="matrix(.26458 0 0 .26458 .79376 4.3947e-6)" fill="#afb1b3"><path d="M 7.5,0 A 3.5,3.5 0 0 0 4,3.5 3.5,3.5 0 0 0 7.5,7 3.5,3.5 0 0 0 11,3.5 3.5,3.5 0 0 0 7.5,0 Z m 0,1 A 2.5,2.5 0 0 1 10,3.5 2.5,2.5 0 0 1 7.5,6 2.5,2.5 0 0 1 5,3.5 2.5,2.5 0 0 1 7.5,1 Z" stroke-width="0"/><path d="m9.5082 6.2754 0.78359-0.7836 2.4 2.3164-0.7836 0.7836z" fill-rule="evenodd" stroke-width=".55409"/></g><g fill="#afb1b3" stroke-linecap="round" stroke-linejoin="round" stroke-miterlimit="0" stroke-width="1.3229"><path d="m0 1.5854 1.5875 0.79581v1.8462l-1.5875-0.7879z" style="paint-order:fill markers stroke"/><path d="m3.4396 2.219a1.4552 1.4552 0 0 1-0.66145 0.16226 1.4552 1.4552 0 0 1-0.62993-0.14521l-0.2961 0.14831v1.8459l1.5875-0.78754v-1.2237z" style="paint-order:fill markers stroke"/><path d="m1.3379 0.72036-1.2056 0.60254 1.6123 0.79374 0.12041-0.060978a1.4552 1.4552 0 0 1-0.54208-1.1296 1.4552 1.4552 0 0 1 0.014986-0.20567z" style="paint-order:fill markers stroke"/></g></svg>
