<?xml version="1.0" encoding="UTF-8"?>
<svg width="16" height="16" version="1.1" viewBox="0 0 16 16" xml:space="preserve" xmlns="http://www.w3.org/2000/svg"><path d="m4 2c-1.108 0-2 0.892-2 2v8c0 1.108 0.892 2 2 2h2.6133a5.5 5.5 0 0 1-0.40039-1h-2.2129c-0.554 0-1-0.446-1-1v-8c0-0.554 0.446-1 1-1h8c0.554 0 1 0.446 1 1v2.209a5.5 5.5 0 0 1 1 0.39453v-2.6035c0-1.108-0.892-2-2-2h-8z" fill="#db5c5c"/><path transform="translate(-16.5,1)" d="m20.5 2c-0.554 0-1 0.446-1 1v8c0 0.554 0.446 1 1 1h2.2129a5.5 5.5 0 0 1-0.21289-1.5 5.5 5.5 0 0 1 5.5-5.5 5.5 5.5 0 0 1 1.5 0.20898v-2.209c0-0.554-0.446-1-1-1h-8z" fill="#5e3838"/><path transform="translate(15,-12.5)" d="m-3.5 22v2l1.9827 1" fill="none" stroke="#ced0d6" stroke-linecap="round" stroke-linejoin="round"/><path d="m11.502 7.0039a4.4939 4.4962 0 0 0-4.4941 4.4961 4.4939 4.4962 0 0 0 4.4941 4.4961 4.4939 4.4962 0 0 0 4.4941-4.4961 4.4939 4.4962 0 0 0-4.4941-4.4961zm0 0.99609a3.4978 3.4997 0 0 1 3.498 3.5 3.4978 3.4997 0 0 1-3.498 3.5 3.4978 3.4997 0 0 1-3.498-3.5 3.4978 3.4997 0 0 1 3.498-3.5z" fill="#ced0d6" stroke-width="1.082"/></svg>
