<?xml version="1.0" encoding="UTF-8"?>
<svg width="16" height="16" version="1.1" viewBox="0 0 16 16" xml:space="preserve" xmlns="http://www.w3.org/2000/svg"><g transform="translate(.0039002 .0039002)"><path transform="translate(15,-12.5)" d="m-3.5 22v2l1.9827 1" fill="none" stroke="#6c707e" stroke-linecap="round" stroke-linejoin="round"/><path d="m11.502 7.0039a4.4939 4.4962 0 0 0-4.4941 4.4961 4.4939 4.4962 0 0 0 4.4941 4.4961 4.4939 4.4962 0 0 0 4.4941-4.4961 4.4939 4.4962 0 0 0-4.4941-4.4961zm0 0.99609a3.4978 3.4997 0 0 1 3.498 3.5 3.4978 3.4997 0 0 1-3.498 3.5 3.4978 3.4997 0 0 1-3.498-3.5 3.4978 3.4997 0 0 1 3.498-3.5z" fill="#6c707e" stroke-width="1.082"/></g><path d="m5.5 0.94922c-1.9508-3.336e-5 -5.5 0.28974-5.5 2v8.9902c0 1.5127 3.125 2.0129 5.5 2.0098a6.5 6.4922 0 0 1-0.31445-1.0039c-2.3506-0.047577-4.1855-0.61693-4.1855-1.0957v-1.6992s0.9173 0.7304 4.0449 0.79688a6.5 6.4922 0 0 1 0.16602-1.002c-2.3627-0.043983-4.2109-0.61522-4.2109-1.0957v-1.7031s1 0.80273 4.5 0.80273c0.20103 0 0.39135-0.0028128 0.57617-0.0078126a6.5 6.4922 0 0 1 0.89258-1.0645c-0.46017 0.044958-0.9528 0.072266-1.4688 0.072266-2.5 0-4.5-0.59961-4.5-1.0996v-1.7031s1 0.80273 4.5 0.80273c3.5 0 4.5-0.80273 4.5-0.80273v1.0586a6.5 6.4922 0 0 1 1-0.15625v-2.0996c0-1.6-3.5492-2-5.5-2zm0 1c2.4853 0 4.5 0.4 4.5 1 0 0.6-2.0147 1-4.5 1s-4.5-0.4-4.5-1c0-0.6 2.0147-1 4.5-1z" fill="#6c707e"/></svg>
