<?xml version="1.0" encoding="UTF-8"?>
<svg width="13" height="13" version="1.1" viewBox="0 0 13 13" xml:space="preserve" xmlns="http://www.w3.org/2000/svg"><g transform="matrix(-1.1 0 0 .66667 15.3 .52633)" fill="#afb1b3" stroke-width=".91287">
        <path d="m13 2.9603c0 1.2419-2.2383 2.2498-5 2.2498s-5-1.0079-5-2.2498 2.2383-2.2498 5-2.2498 5 1.0079 5 2.2498z" stroke-width="1.1179"/>
        <path d="m8 6.8605c-2.75 0-5-1.3-5-2.1l1e-7 2.7194c0 0.8 2.25 2.0947 5 2.0947s5-1.2947 5-2.0947v-2.7194c0 0.8-2.25 2.1-5 2.1z"/>
        <path d="m8 11.36c-2.75 0-5-1.3-5-2.1v2.7053c0 0.8 2.25 2.0947 5 2.0947 2.75 0 5-1.2947 5-2.0947v-2.7053c0 0.8-2.25 2.1-5 2.1z"/>
        <path d="m8 15.86c-2.75 0-5-1.3-5-2.1l1e-7 2.8399c0 0.8 2.25 2.0947 5 2.0947s5-1.2947 5-2.0947v-2.8399c0 0.8-2.25 2.1-5 2.1z"/>
    </g></svg>
