<?xml version="1.0" encoding="UTF-8"?>
<svg width="16" height="16" version="1.1" viewBox="0 0 16 16" xml:space="preserve" xmlns="http://www.w3.org/2000/svg">
    <g transform="matrix(-1.2 0 0 .66667 17.6 .333)" fill="#5f8dd3" stroke-width=".91287">
        <path d="m13 15.4v3.0058c0 0.8-2.25 2.0947-5 2.0947-0.028556 0-0.056189-0.002652-0.084635-0.002929a4.1667 7.5 0 0 0 0.086263-1.2187 4.1667 7.5 0 0 0-0.089518-1.7812c0.029535 3e-4 0.058237 0.002929 0.087891 0.002929 2.75 0 5-1.3006 5-2.1006z"/>
        <path d="m13 10.9v3.0058c0 0.8-2.25 2.0947-5 2.0947-0.12026 0-0.23824-0.006916-0.35645-0.011719a4.1667 7.5 0 0 0-1.4404-3.1758c0.55885 0.11588 1.1636 0.1875 1.7969 0.1875 2.75 0 5-1.3006 5-2.1006zm-10 0c0 0.18678 0.12691 0.39978 0.34993 0.61816a4.1667 7.5 0 0 0-0.34993 0.099608v-0.71777z"/>
        <path d="m8 8.5c-2.75 0-5-1.3-5-2.1v3.0053c0 0.8 2.25 2.0947 5 2.0947s5-1.2947 5-2.0947v-3.0053c0 0.8-2.25 2.1-5 2.1z"/>
        <path d="m13 4.7502c0 1.2419-2.2383 2.2498-5 2.2498s-5-1.0079-5-2.2498 2.2383-2.2498 5-2.2498 5 1.0079 5 2.2498z" stroke-width="1.1179"/>
    </g>
    <ellipse cx="12.994" cy="13" rx="2.9939" ry="3" fill="#f83030" stroke-width="1.1988"/>
</svg>
