<?xml version="1.0" encoding="UTF-8"?>
<svg width="16" height="16" version="1.1" viewBox="0 0 16 16" xml:space="preserve" xmlns="http://www.w3.org/2000/svg">
    <g transform="matrix(-1.2 0 0 .66667 17.6 .33333)" fill="#afb1b3">
        <g stroke-width=".91287">
            <path d="m13 15.399v3.0058c0 0.73651-1.9086 1.8895-4.3571 2.0683a4.5717 8.2705 0 0 0 0.17578-1.916 4.5717 8.2705 0 0 0-0.019531-1.0986c2.3727-0.2162 4.2008-1.3388 4.2008-2.0596z"/>
            <path d="m13 10.899v3.0058c0 0.73618-1.9069 1.8887-4.3538 2.0683a4.5833 8.25 0 0 0-0.8724-2.9795c0.075518 0.001964 0.14991 0.005859 0.22624 0.005859 2.75 0 5-1.3006 5-2.1006z"/>
            <path d="m13 6.3994v3.0058c0 0.8-2.25 2.0947-5 2.0947-0.40924 0-0.8052-0.033515-1.1865-0.084961a4.5717 8.2705 0 0 0-2.3079-1.4238 4.5717 8.2705 0 0 0-1.0465 0.13184c-0.29186-0.2521-0.45898-0.50245-0.45898-0.71777v-3.0058c0 0.8 2.25 2.1006 5 2.1006 2.75 0 5-1.3006 5-2.1006z"/>
        </g>
        <path d="m13 4.75c0 1.242-2.2383 2.25-5 2.25s-5-1.008-5-2.25 2.2383-2.25 5-2.25 5 1.008 5 2.25z" stroke-width="1.118"/>
    </g>
    <g transform="translate(0 -.00056313)" fill-rule="evenodd">
        <path d="m16 12.5c0 1.933-1.567 3.5-3.5 3.5s-3.5-1.567-3.5-3.5 1.567-3.5 3.5-3.5 3.5 1.567 3.5 3.5" fill="#e05555"/>
        <path d="m13 14v1h-1v-1zm0-4v3h-1v-3z" fill="#fff"/>
    </g>
</svg>
