<?xml version="1.0" encoding="UTF-8"?>
<svg width="16" height="16" version="1.1" viewBox="0 0 16 16" xml:space="preserve" xmlns="http://www.w3.org/2000/svg"><path d="m2 2v11h3v-1h-2v-2h3l1-1v-2l2-1e-7 2-2 5e-5 -1 3 2e-5v-2zm1 2 3 2e-7v2l-3-2e-7zm4 2e-7 3-1e-7v2l-3 1e-7zm-4 3 3 2e-7v2h-3zm10.108 1.9902-2.0704-2.0704-5.038 5.0098v2.0704h2.0704zm1.7253-1.7253c0.22162-0.22165 0.22162-0.81356 0-1.0352l-1.0352-1.0352c-0.22162-0.22165-0.81358-0.22165-1.0352 0l-1.0352 1.0352 2.0704 2.0704z" fill="#afb1b3"/></svg>
