<?xml version="1.0" encoding="UTF-8"?>
<svg width="16" height="16" version="1.1" viewBox="0 0 16 16" xmlns="http://www.w3.org/2000/svg">
 <path d="m5 11.014v0.98586l-3 7e-6v-1zm8.0005-8.014-0.99951 1.0141-10-0.014149v-1zm0.108 5.9761-2.0704-2.0704-5.038 5.0098v2.0704h2.0704zm1.7253-1.7253c0.22162-0.22165 0.22162-0.81356 0-1.0352l-1.0352-1.0352c-0.22162-0.22165-0.81358-0.22165-1.0352 0l-1.0352 1.0352 2.0704 2.0704zm-5.9698-0.23665-1 1-5.864-0.014149v-1zm2-2-1 1-7.864-0.014149v-1zm-4 4-1 1-3.864-0.01415v-1z" fill="#6e6e6e"/>
</svg>
