<?xml version="1.0" encoding="UTF-8"?>
<svg width="16" height="16" version="1.1" viewBox="0 0 16 16" xml:space="preserve" xmlns="http://www.w3.org/2000/svg"><path d="m4 2v12l3.0508-1.832a4.5 4.5 0 0 1-0.050781-0.66797 4.5 4.5 0 0 1 4.5-4.5 4.5 4.5 0 0 1 1.0371 0.12109l-8.5371-5.1211z" fill="#59a869"/><path transform="matrix(1,0,0,-1,-1,24)" d="m12.5 16c-1.933 0-3.5-1.567-3.5-3.5s1.567-3.5 3.5-3.5 3.5 1.567 3.5 3.5-1.567 3.5-3.5 3.5zm-0.5-1h1v-1h-1v1zm0-2h1v-3h-1v3z" fill="#3fb5e0" fill-opacity=".70196"/></svg>
