<?xml version="1.0" encoding="UTF-8"?>
<svg width="16" height="16" version="1.1" viewBox="0 0 16 16" xml:space="preserve" xmlns="http://www.w3.org/2000/svg"><path d="m3 3v10h3.2207a5.5 5.5 0 0 1-0.2168-1.2949 5.5 5.5 0 0 1 5.1895-5.6973 5.5 5.5 0 0 1 1.8066 0.21484v-3.2227h-10z" fill="#c75450"/><g transform="translate(.0039002 .0039002)"><path transform="translate(15,-12.5)" d="m-3.5 22v2l1.9827 1" fill="none" stroke="#afb1b3" stroke-linecap="round" stroke-linejoin="round"/><path d="m11.502 7.0039a4.4939 4.4962 0 0 0-4.4941 4.4961 4.4939 4.4962 0 0 0 4.4941 4.4961 4.4939 4.4962 0 0 0 4.4941-4.4961 4.4939 4.4962 0 0 0-4.4941-4.4961zm0 0.99609a3.4978 3.4997 0 0 1 3.498 3.5 3.4978 3.4997 0 0 1-3.498 3.5 3.4978 3.4997 0 0 1-3.498-3.5 3.4978 3.4997 0 0 1 3.498-3.5z" fill="#afb1b3" stroke-width="1.082"/></g></svg>
