<?xml version="1.0" encoding="UTF-8"?>
<svg width="16" height="16" fill="none" version="1.1" viewBox="0 0 16 16" xml:space="preserve" xmlns="http://www.w3.org/2000/svg"><path d="m5 2c-0.55228 0-1 0.44772-1 1v0.5l-2 1e-7v-2.5h-1v3.5h3v0.5c0 0.55228 0.44772 1 1 1h1l1e-7 7.5h4v0.5c0 0.55228 0.4477 1 1 1h3c0.5523 0 1-0.44772 1-1v-2c0-0.55228-0.4477-1-1-1h-3c-0.5523 0-1 0.44772-1 1v0.5h-3v-4h3v0.5c0 0.55228 0.4477 1 1 1h3c0.5523 0 1-0.44772 1-1v-2c0-0.5523-0.4477-1-1-1h-3c-0.5523 0-1 0.4477-1 1v0.5h-3l2e-7 -1.5 1-1e-7c0.5523 0 1-0.44772 1-1v-2c0-0.55228-0.4477-1-1-1zm0 1h3v2h-3zm6 4h3v2h-3zm0 5h3v2h-3z" clip-rule="evenodd" fill="#6e6e6e" fill-rule="evenodd"/></svg>
