<?xml version="1.0" encoding="UTF-8"?>
<svg width="16" height="16" version="1.1" viewBox="0 0 16 16" xml:space="preserve" xmlns="http://www.w3.org/2000/svg"><path transform="matrix(-1.1 0 0 .66667 14.3 -.47354)" d="m8 0.71031c2.7617 0 5 1.0081 5 2.25s-2.2383 2.25-5 2.25c-2.7617 0-5-1.0081-5-2.25s2.2383-2.25 5-2.25zm5 4.0488v2.7217c0 0.8-2.25 2.0947-5 2.0947-0.94936 0-1.8359-0.1576-2.5941-0.39258l-2.4059-3.9638v-0.45996c0 0.8 2.25 2.1006 5 2.1006 2.75 0 5-1.3006 5-2.1006zm0 4.5v2.707c0 0.7554-2.0065 1.9519-4.5455 2.083v-2.7012c2.5389-0.13158 4.5455-1.3335 4.5455-2.0889zm0 4.5v2.8418c0 0.44924-0.70906 1.0527-1.8182 1.4971v-2.8359c1.1091-0.44584 1.8182-1.0537 1.8182-1.5029z" fill="#afb1b3"/><path d="m13 9v3.2l-4.2-4.2 4.2-4.2v3.2h3v2z" fill="#3592c4"/><path d="m7 13-1e-7 3.2 4.2-4.2-4.2-4.2 1e-7 3.2h-3v2z" fill="#3592c4"/></svg>
