<?xml version="1.0" encoding="UTF-8"?>
<svg width="16" height="16" version="1.1" viewBox="0 0 16 16" xml:space="preserve" xmlns="http://www.w3.org/2000/svg"><g><path d="m13 9v3.2l-4.2-4.2 4.2-4.2v3.2h3v2z" fill="#3592c4"/><path d="m7 13v3.2l4.2-4.2-4.2-4.2v3.2h-3v2z" fill="#3592c4"/><path d="m5 6 3e-7 1h-5l-3.298e-7 -1zm3-2 4e-7 1h-8l-5.8733e-7 -1zm3.5-2v1l-11.5-1e-7 -1.4901e-7 -1zm0-2v1h-11.5l-3.4901e-7 -1zm-6.5 8 3e-7 1h-5l-3e-7 -1zm-3 2 3e-7 1h-2l-3e-7 -1z" fill="#afb1b3" fill-rule="evenodd"/></g></svg>
